<?xml version="1.0" encoding="UTF-8" standalone="no"?>
<svg
   xmlns:dc="http://purl.org/dc/elements/1.1/"
   xmlns:cc="http://creativecommons.org/ns#"
   xmlns:rdf="http://www.w3.org/1999/02/22-rdf-syntax-ns#"
   xmlns:svg="http://www.w3.org/2000/svg"
   xmlns="http://www.w3.org/2000/svg"
   xmlns:sodipodi="http://sodipodi.sourceforge.net/DTD/sodipodi-0.dtd"
   xmlns:inkscape="http://www.inkscape.org/namespaces/inkscape"
   width="60"
   height="60"
   viewBox="-30 -30 60 60"
   version="1.1"
   id="svg2"
   inkscape:version="0.48.4 r9939"
   sodipodi:docname="SandwichPlate.svg">
  <metadata
     id="metadata12">
    <rdf:RDF>
      <cc:Work
         rdf:about="">
        <dc:format>image/svg+xml</dc:format>
        <dc:type
           rdf:resource="http://purl.org/dc/dcmitype/StillImage" />
      </cc:Work>
    </rdf:RDF>
  </metadata>
  <defs
     id="defs10" />
  <sodipodi:namedview
     pagecolor="#ffffff"
     bordercolor="#666666"
     borderopacity="1"
     objecttolerance="10"
     gridtolerance="10"
     guidetolerance="10"
     inkscape:pageopacity="0"
     inkscape:pageshadow="2"
     inkscape:window-width="1536"
     inkscape:window-height="803"
     id="namedview8"
     showgrid="false"
     inkscape:zoom="7.8666667"
     inkscape:cx="14.464281"
     inkscape:cy="24.352011"
     inkscape:window-x="-8"
     inkscape:window-y="-8"
     inkscape:window-maximized="1"
     inkscape:current-layer="svg2" />
  <title
     id="title4">OpenSCAD Model</title>
  <path
     d=" M 0.926605,29.4854 L 1.85231,29.4418 L 2.77618,29.3691 L 3.69733,29.2674 L 4.61481,29.1368 L 5.52774,28.9775  L 6.43521,28.7895 L 7.33635,28.5732 L 8.23022,28.3287 L 9.116,28.0562 L 9.99277,27.756 L 10.8597,27.4284  L 11.7159,27.0738 L 12.5605,26.6924 L 13.3927,26.2847 L 14.2117,25.851 L 15.0167,25.3919 L 15.8069,24.9077  L 16.5815,24.3989 L 17.3397,23.866 L 18.0807,23.3096 L 18.804,22.7301 L 19.5087,22.1283 L 20.1941,21.5046  L 20.8596,20.8596 L 21.5046,20.1941 L 22.1283,19.5087 L 22.7301,18.804 L 23.3096,18.0807 L 23.866,17.3397  L 24.3989,16.5815 L 24.9077,15.8069 L 25.3919,15.0167 L 25.851,14.2117 L 26.2847,13.3927 L 26.6924,12.5605  L 27.0738,11.7159 L 27.4284,10.8597 L 27.756,9.99277 L 28.0562,9.116 L 28.3287,8.23022 L 28.5732,7.33635  L 28.7895,6.43521 L 28.9775,5.52774 L 29.1368,4.61481 L 29.2674,3.69733 L 29.3691,2.77618 L 29.4418,1.85231  L 29.4854,0.926605 L 29.5,-0 L 29.4854,-0.926605 L 29.4418,-1.85231 L 29.3691,-2.77618 L 29.2674,-3.69733  L 29.1368,-4.61481 L 28.9775,-5.52774 L 28.7895,-6.43521 L 28.5732,-7.33635 L 28.3287,-8.23022 L 28.0562,-9.116  L 27.756,-9.99277 L 27.4284,-10.8597 L 27.0738,-11.7159 L 26.6924,-12.5605 L 26.2847,-13.3927 L 25.851,-14.2117  L 25.3919,-15.0167 L 24.9077,-15.8069 L 24.3989,-16.5815 L 23.866,-17.3397 L 23.3096,-18.0807 L 22.7301,-18.804  L 22.1283,-19.5087 L 21.5046,-20.1941 L 20.8596,-20.8596 L 20.1941,-21.5046 L 19.5087,-22.1283 L 18.804,-22.7301  L 18.0807,-23.3096 L 17.3397,-23.866 L 16.5815,-24.3989 L 15.8069,-24.9077 L 15.0167,-25.3919 L 14.2117,-25.851  L 13.3927,-26.2847 L 12.5605,-26.6924 L 11.7159,-27.0738 L 10.8597,-27.4284 L 9.99277,-27.756 L 9.116,-28.0562  L 8.23022,-28.3287 L 7.33635,-28.5732 L 6.43521,-28.7895 L 5.52774,-28.9775 L 4.61481,-29.1368 L 3.69733,-29.2674  L 2.77618,-29.3691 L 1.85231,-29.4418 L 0.926605,-29.4854 L 0,-29.5 L -0.926605,-29.4854 L -1.85231,-29.4418  L -2.77618,-29.3691 L -3.69733,-29.2674 L -4.61481,-29.1368 L -5.52774,-28.9775 L -6.43521,-28.7895 L -7.33635,-28.5732  L -8.23022,-28.3287 L -9.116,-28.0562 L -9.99277,-27.756 L -10.8597,-27.4284 L -11.7159,-27.0738 L -12.5605,-26.6924  L -13.3927,-26.2847 L -14.2117,-25.851 L -15.0167,-25.3919 L -15.8069,-24.9077 L -16.5815,-24.3989 L -17.3397,-23.866  L -18.0807,-23.3096 L -18.804,-22.7301 L -19.5087,-22.1283 L -20.1941,-21.5046 L -20.8596,-20.8596 L -21.5046,-20.1941  L -22.1283,-19.5087 L -22.7301,-18.804 L -23.3096,-18.0807 L -23.866,-17.3397 L -24.3989,-16.5815 L -24.9077,-15.8069  L -25.3919,-15.0167 L -25.851,-14.2117 L -26.2847,-13.3927 L -26.6924,-12.5605 L -27.0738,-11.7159 L -27.4284,-10.8597  L -27.756,-9.99277 L -28.0562,-9.116 L -28.3287,-8.23022 L -28.5732,-7.33635 L -28.7895,-6.43521 L -28.9775,-5.52774  L -29.1368,-4.61481 L -29.2674,-3.69733 L -29.3691,-2.77618 L -29.4418,-1.85231 L -29.4854,-0.926605 L -29.5,-0  L -29.4854,0.926605 L -29.4418,1.85231 L -29.3691,2.77618 L -29.2674,3.69733 L -29.1368,4.61481 L -28.9775,5.52774  L -28.7895,6.43521 L -28.5732,7.33635 L -28.3287,8.23022 L -28.0562,9.116 L -27.756,9.99277 L -27.4284,10.8597  L -27.0738,11.7159 L -26.6924,12.5605 L -26.2847,13.3927 L -25.851,14.2117 L -25.3919,15.0167 L -24.9077,15.8069  L -24.3989,16.5815 L -23.866,17.3397 L -23.3096,18.0807 L -22.7301,18.804 L -22.1283,19.5087 L -21.5046,20.1941  L -20.8596,20.8596 L -20.1941,21.5046 L -19.5087,22.1283 L -18.804,22.7301 L -18.0807,23.3096 L -17.3397,23.866  L -16.5815,24.3989 L -15.8069,24.9077 L -15.0167,25.3919 L -14.2117,25.851 L -13.3927,26.2847 L -12.5605,26.6924  L -11.7159,27.0738 L -10.8597,27.4284 L -9.99277,27.756 L -9.116,28.0562 L -8.23022,28.3287 L -7.33635,28.5732  L -6.43521,28.7895 L -5.52774,28.9775 L -4.61481,29.1368 L -3.69733,29.2674 L -2.77618,29.3691 L -1.85231,29.4418  L -0.926605,29.4854 L 0,29.5 z M 0.0809784,-23.1998 L -0.0445709,-23.2042 L -0.169617,-23.2165 L -0.29364,-23.2366 L -0.416168,-23.2644 L -0.536697,-23.2999  L -0.65477,-23.3429 L -0.769897,-23.3932 L -0.881653,-23.4506 L -0.989563,-23.5149 L -1.09325,-23.5859 L -1.19225,-23.6633  L -1.28621,-23.7467 L -1.37474,-23.8358 L -1.45749,-23.9304 L -1.53415,-24.0299 L -1.60442,-24.1341 L -1.668,-24.2425  L -1.72464,-24.3546 L -1.77414,-24.4701 L -1.81628,-24.5885 L -1.85092,-24.7092 L -1.8779,-24.8319 L -1.89713,-24.9561  L -1.90851,-25.0812 L -1.91202,-25.2068 L -1.90762,-25.3324 L -1.89537,-25.4574 L -1.87529,-25.5815 L -1.84744,-25.704  L -1.81197,-25.8245 L -1.769,-25.9426 L -1.7187,-26.0577 L -1.66127,-26.1695 L -1.59694,-26.2774 L -1.52596,-26.3811  L -1.44859,-26.4801 L -1.36517,-26.574 L -1.27603,-26.6626 L -1.18149,-26.7453 L -1.13232,-26.7844 L -1.03041,-26.8579  L -0.924103,-26.9249 L -0.813782,-26.985 L -0.699905,-27.0381 L -0.582932,-27.084 L -0.463303,-27.1224 L -0.341492,-27.1532  L -0.218002,-27.1763 L -0.0932922,-27.1916 L 0.0321198,-27.1991 L 0.157761,-27.1986 L 0.283127,-27.1903 L 0.407715,-27.1741  L 0.531052,-27.1501 L 0.652634,-27.1185 L 0.772003,-27.0792 L 0.888657,-27.0326 L 1.00215,-26.9787 L 1.11205,-26.9178  L 1.2179,-26.8501 L 1.31927,-26.7759 L 1.4158,-26.6954 L 1.5071,-26.6091 L 1.59279,-26.5172 L 1.67253,-26.4201  L 1.74603,-26.3182 L 1.81299,-26.2119 L 1.87312,-26.1016 L 1.92622,-25.9877 L 1.97208,-25.8707 L 2.01048,-25.7511  L 2.04131,-25.6293 L 2.06441,-25.5058 L 2.07973,-25.3811 L 2.08717,-25.2557 L 2.08673,-25.13 L 2.07841,-25.0047  L 2.06223,-24.8801 L 2.03825,-24.7567 L 2.00659,-24.6352 L 1.96735,-24.5158 L 1.92068,-24.3991 L 1.86679,-24.2856  L 1.80588,-24.1758 L 1.73819,-24.0699 L 1.66397,-23.9685 L 1.58356,-23.872 L 1.49722,-23.7807 L 1.40533,-23.695  L 1.30824,-23.6153 L 1.20634,-23.5418 L 1.10002,-23.4748 L 0.989716,-23.4147 L 0.875839,-23.3616 L 0.758865,-23.3157  L 0.639236,-23.2773 L 0.517426,-23.2465 L 0.393921,-23.2234 L 0.269226,-23.2081 L 0.143799,-23.2006 z M -21.7658,-10.6761 L -21.8914,-10.6792 L -22.0165,-10.6902 L -22.1408,-10.709 L -22.2636,-10.7355 L -22.3845,-10.7697  L -22.503,-10.8114 L -22.6186,-10.8605 L -22.731,-10.9168 L -22.8396,-10.98 L -22.944,-11.0499 L -23.0438,-11.1262  L -23.1386,-11.2086 L -23.2281,-11.2969 L -23.3118,-11.3905 L -23.3895,-11.4893 L -23.4608,-11.5927 L -23.5256,-11.7004  L -23.5834,-11.8119 L -23.6341,-11.9269 L -23.6775,-12.0448 L -23.7134,-12.1652 L -23.7416,-12.2876 L -23.7621,-12.4116  L -23.7748,-12.5366 L -23.7797,-12.6621 L -23.7766,-12.7877 L -23.7657,-12.9129 L -23.7469,-13.0371 L -23.7203,-13.1599  L -23.6861,-13.2808 L -23.6444,-13.3993 L -23.5953,-13.515 L -23.539,-13.6273 L -23.4758,-13.7359 L -23.4059,-13.8403  L -23.3296,-13.9402 L -23.2472,-14.035 L -23.159,-14.1244 L -23.0653,-14.2082 L -22.9666,-14.2859 L -22.8631,-14.3572  L -22.7554,-14.4219 L -22.6439,-14.4798 L -22.5289,-14.5305 L -22.411,-14.5739 L -22.2906,-14.6097 L -22.1682,-14.638  L -22.0442,-14.6585 L -21.9192,-14.6712 L -21.7937,-14.676 L -21.6681,-14.673 L -21.5429,-14.662 L -21.4187,-14.6432  L -21.2959,-14.6167 L -21.175,-14.5825 L -21.0565,-14.5407 L -20.9408,-14.4917 L -20.8285,-14.4354 L -20.7199,-14.3722  L -20.6155,-14.3023 L -20.5157,-14.226 L -20.4208,-14.1436 L -20.3314,-14.0553 L -20.2476,-13.9617 L -20.1699,-13.8629  L -20.0986,-13.7595 L -20.0339,-13.6518 L -19.9761,-13.5403 L -19.9254,-13.4253 L -19.882,-13.3074 L -19.8461,-13.187  L -19.8178,-13.0646 L -19.7973,-12.9406 L -19.7846,-12.8156 L -19.7798,-12.6901 L -19.7828,-12.5645 L -19.7938,-12.4393  L -19.8126,-12.3151 L -19.8391,-12.1922 L -19.8733,-12.0714 L -19.9151,-11.9529 L -19.9642,-11.8372 L -20.0204,-11.7249  L -20.0836,-11.6163 L -20.1535,-11.5119 L -20.2298,-11.412 L -20.3123,-11.3172 L -20.4005,-11.2278 L -20.4941,-11.144  L -20.5929,-11.0663 L -20.6963,-10.995 L -20.804,-10.9303 L -20.9155,-10.8724 L -21.0305,-10.8217 L -21.1484,-10.7783  L -21.2688,-10.7424 L -21.3913,-10.7142 L -21.5152,-10.6937 L -21.6402,-10.681 z M 21.8398,-10.5239 L 21.7142,-10.5296 L 21.5893,-10.5432 L 21.4655,-10.5646 L 21.3433,-10.5937 L 21.2231,-10.6304  L 21.1055,-10.6746 L 20.9909,-10.7262 L 20.8798,-10.7847 L 20.7726,-10.8502 L 20.6696,-10.9223 L 20.5714,-11.0007  L 20.4784,-11.0851 L 20.3908,-11.1751 L 20.309,-11.2705 L 20.2334,-11.3709 L 20.1642,-11.4758 L 20.1018,-11.5848  L 20.0463,-11.6975 L 19.998,-11.8135 L 19.9571,-11.9323 L 19.9238,-12.0535 L 19.8981,-12.1764 L 19.8801,-12.3008  L 19.8701,-12.426 L 19.8679,-12.5517 L 19.8736,-12.6772 L 19.8871,-12.8021 L 19.9085,-12.9259 L 19.9377,-13.0481  L 19.9744,-13.1683 L 20.0186,-13.2859 L 20.0701,-13.4005 L 20.1287,-13.5116 L 20.1942,-13.6189 L 20.2662,-13.7218  L 20.3446,-13.82 L 20.429,-13.9131 L 20.5191,-14.0006 L 20.6145,-14.0824 L 20.7148,-14.158 L 20.8197,-14.2272  L 20.9287,-14.2896 L 21.0415,-14.3451 L 21.1575,-14.3934 L 21.2763,-14.4343 L 21.3974,-14.4677 L 21.5204,-14.4933  L 21.6447,-14.5113 L 21.77,-14.5213 L 21.8956,-14.5235 L 22.0211,-14.5178 L 22.146,-14.5043 L 22.2698,-14.4829  L 22.3921,-14.4538 L 22.5122,-14.417 L 22.6298,-14.3728 L 22.7444,-14.3213 L 22.8556,-14.2627 L 22.9628,-14.1973  L 23.0657,-14.1252 L 23.1639,-14.0468 L 23.257,-13.9624 L 23.3446,-13.8723 L 23.4264,-13.7769 L 23.502,-13.6766  L 23.5711,-13.5717 L 23.6336,-13.4627 L 23.6891,-13.3499 L 23.7373,-13.2339 L 23.7782,-13.1152 L 23.8116,-12.994  L 23.8373,-12.871 L 23.8552,-12.7467 L 23.8653,-12.6214 L 23.8675,-12.4958 L 23.8618,-12.3703 L 23.8482,-12.2454  L 23.8268,-12.1216 L 23.7977,-11.9994 L 23.761,-11.8792 L 23.7168,-11.7616 L 23.6653,-11.647 L 23.6067,-11.5359  L 23.5412,-11.4286 L 23.4691,-11.3257 L 23.3908,-11.2275 L 23.3064,-11.1344 L 23.2163,-11.0468 L 23.1209,-10.9651  L 23.0206,-10.8895 L 22.9156,-10.8203 L 22.8066,-10.7578 L 22.6939,-10.7024 L 22.5779,-10.6541 L 22.4591,-10.6132  L 22.338,-10.5798 L 22.215,-10.5541 L 22.0906,-10.5362 L 21.9654,-10.5261 z M 6.01559,-8.90228 L 5.92201,-8.90424 L 5.82872,-8.91208 L 5.73611,-8.92575 L 5.64455,-8.94521 L 5.5544,-8.97038  L 5.46599,-9.00117 L 5.3797,-9.03745 L 5.29584,-9.07907 L 5.21478,-9.12587 L 5.13681,-9.17767 L 5.06224,-9.23427  L 4.99138,-9.29544 L 4.9245,-9.36093 L 4.86186,-9.4305 L 4.80371,-9.50386 L 4.75029,-9.58073 L 4.7018,-9.6608  L 4.65843,-9.74376 L 4.62035,-9.82927 L 4.58772,-9.91702 L 4.56067,-10.0066 L 4.53929,-10.0978 L 4.52368,-10.1901  L 4.5139,-10.2832 L 4.50998,-10.3767 L 4.51193,-10.4703 L 4.51976,-10.5636 L 4.53345,-10.6562 L 4.5529,-10.7477  L 4.57808,-10.8379 L 4.60887,-10.9263 L 4.64514,-11.0126 L 4.68677,-11.0965 L 4.73357,-11.1775 L 4.78537,-11.2555  L 4.84196,-11.33 L 4.90314,-11.4009 L 4.96863,-11.4678 L 5.03819,-11.5304 L 5.11156,-11.5886 L 5.18843,-11.642  L 5.26849,-11.6905 L 5.35146,-11.7339 L 5.43697,-11.7719 L 5.5247,-11.8046 L 5.61432,-11.8316 L 5.70546,-11.853  L 5.79776,-11.8686 L 5.89085,-11.8784 L 5.98439,-11.8823 L 6.07797,-11.8804 L 6.17126,-11.8725 L 6.26387,-11.8588  L 6.35544,-11.8394 L 6.44559,-11.8142 L 6.534,-11.7834 L 6.62029,-11.7471 L 6.70415,-11.7055 L 6.7852,-11.6587  L 6.86317,-11.6069 L 6.93774,-11.5503 L 7.00861,-11.4892 L 7.07549,-11.4237 L 7.13812,-11.3541 L 7.19627,-11.2807  L 7.24969,-11.2039 L 7.29819,-11.1238 L 7.34155,-11.0408 L 7.37964,-10.9553 L 7.41226,-10.8676 L 7.43932,-10.778  L 7.46069,-10.6868 L 7.4763,-10.5945 L 7.48608,-10.5014 L 7.49001,-10.4079 L 7.48805,-10.3143 L 7.48022,-10.221  L 7.46654,-10.1284 L 7.44708,-10.0369 L 7.42191,-9.9467 L 7.39111,-9.85829 L 7.35484,-9.772 L 7.31322,-9.68816  L 7.26642,-9.60709 L 7.21461,-9.52911 L 7.15802,-9.45454 L 7.09685,-9.38368 L 7.03136,-9.3168 L 6.96179,-9.25417  L 6.88843,-9.19601 L 6.81155,-9.14259 L 6.73149,-9.0941 L 6.64853,-9.05074 L 6.56302,-9.01266 L 6.47528,-8.98003  L 6.38567,-8.95297 L 6.29453,-8.93159 L 6.20222,-8.91599 L 6.10913,-8.9062 z M -6.01559,-8.90228 L -6.10913,-8.9062 L -6.20222,-8.91599 L -6.29453,-8.93159 L -6.38567,-8.95297 L -6.47528,-8.98003  L -6.56302,-9.01266 L -6.64853,-9.05074 L -6.73149,-9.0941 L -6.81155,-9.14259 L -6.88843,-9.19601 L -6.96179,-9.25417  L -7.03136,-9.3168 L -7.09685,-9.38368 L -7.15802,-9.45454 L -7.21461,-9.52911 L -7.26642,-9.60709 L -7.31322,-9.68816  L -7.35484,-9.772 L -7.39111,-9.85829 L -7.42191,-9.9467 L -7.44708,-10.0369 L -7.46654,-10.1284 L -7.48022,-10.221  L -7.48805,-10.3143 L -7.49001,-10.4079 L -7.48608,-10.5014 L -7.4763,-10.5945 L -7.46069,-10.6868 L -7.43932,-10.778  L -7.41226,-10.8676 L -7.37964,-10.9553 L -7.34155,-11.0408 L -7.29819,-11.1238 L -7.24969,-11.2039 L -7.19627,-11.2807  L -7.13812,-11.3541 L -7.07549,-11.4237 L -7.00861,-11.4892 L -6.93774,-11.5503 L -6.86317,-11.6069 L -6.7852,-11.6587  L -6.70415,-11.7055 L -6.62029,-11.7471 L -6.534,-11.7834 L -6.44559,-11.8142 L -6.35544,-11.8394 L -6.26387,-11.8588  L -6.17126,-11.8725 L -6.07797,-11.8804 L -5.98439,-11.8823 L -5.89085,-11.8784 L -5.79776,-11.8686 L -5.70546,-11.853  L -5.61432,-11.8316 L -5.5247,-11.8046 L -5.43697,-11.7719 L -5.35146,-11.7339 L -5.26849,-11.6905 L -5.18843,-11.642  L -5.11156,-11.5886 L -5.03819,-11.5304 L -4.96863,-11.4678 L -4.90314,-11.4009 L -4.84196,-11.33 L -4.78537,-11.2555  L -4.73357,-11.1775 L -4.68677,-11.0965 L -4.64514,-11.0126 L -4.60887,-10.9263 L -4.57808,-10.8379 L -4.5529,-10.7477  L -4.53345,-10.6562 L -4.51976,-10.5636 L -4.51193,-10.4703 L -4.50998,-10.3767 L -4.5139,-10.2832 L -4.52368,-10.1901  L -4.53929,-10.0978 L -4.56067,-10.0066 L -4.58772,-9.91702 L -4.62035,-9.82927 L -4.65843,-9.74376 L -4.7018,-9.6608  L -4.75029,-9.58073 L -4.80371,-9.50386 L -4.86186,-9.4305 L -4.9245,-9.36093 L -4.99138,-9.29544 L -5.06224,-9.23427  L -5.13681,-9.17767 L -5.21478,-9.12587 L -5.29584,-9.07907 L -5.3797,-9.03745 L -5.46599,-9.00117 L -5.5544,-8.97038  L -5.64455,-8.94521 L -5.73611,-8.92575 L -5.82872,-8.91208 L -5.92201,-8.90424 z M -0.256775,8.17096 L -0.513306,8.15886 L -0.769333,8.13872 L -1.0246,8.11053 L -1.27884,8.07434 L -1.53183,8.0302  L -1.78331,7.97812 L -2.03304,7.91817 L -2.28075,7.85039 L -2.5262,7.77487 L -2.76918,7.6917 L -3.00941,7.60092  L -3.24667,7.50264 L -3.48074,7.39696 L -3.71136,7.28397 L -3.93832,7.1638 L -4.16141,7.03656 L -4.38037,6.90237  L -4.59502,6.76138 L -4.80513,6.61371 L -5.01051,6.4595 L -5.21094,6.29893 L -5.40622,6.13216 L -5.59616,5.9593  L -5.78059,5.78059 L -5.9593,5.59616 L -6.13216,5.40622 L -6.29893,5.21094 L -6.4595,5.01051 L -6.61371,4.80513  L -6.76138,4.59502 L -6.90237,4.38037 L -7.03656,4.16141 L -7.1638,3.93832 L -7.28397,3.71136 L -7.39696,3.48074  L -7.50264,3.24667 L -7.60092,3.00941 L -7.6917,2.76918 L -7.77487,2.5262 L -7.85039,2.28075 L -7.91817,2.03304  L -7.97812,1.78331 L -8.0302,1.53183 L -8.07434,1.27884 L -8.11053,1.0246 L -8.13872,0.769333 L -8.15886,0.513306  L -8.17096,0.256775 L -8.17499,-0 L -8.17096,-0.256775 L -8.15886,-0.513306 L -8.13872,-0.769333 L -8.11053,-1.0246  L -8.07434,-1.27884 L -8.0302,-1.53183 L -7.97812,-1.78331 L -7.91817,-2.03304 L -7.85039,-2.28075 L -7.77487,-2.5262  L -7.6917,-2.76918 L -7.60092,-3.00941 L -7.50264,-3.24667 L -7.39696,-3.48074 L -7.28397,-3.71136 L -7.1638,-3.93832  L -7.03656,-4.16141 L -6.90237,-4.38037 L -6.76138,-4.59502 L -6.61371,-4.80513 L -6.4595,-5.01051 L -6.29893,-5.21094  L -6.13216,-5.40622 L -5.9593,-5.59616 L -5.78059,-5.78059 L -5.59616,-5.9593 L -5.40622,-6.13216 L -5.21094,-6.29893  L -5.01051,-6.4595 L -4.80513,-6.61371 L -4.59502,-6.76138 L -4.38037,-6.90237 L -4.16141,-7.03656 L -3.93832,-7.1638  L -3.71136,-7.28397 L -3.48074,-7.39696 L -3.24667,-7.50264 L -3.00941,-7.60092 L -2.76918,-7.6917 L -2.5262,-7.77487  L -2.28075,-7.85039 L -2.03304,-7.91817 L -1.78331,-7.97812 L -1.53183,-8.0302 L -1.27884,-8.07434 L -1.0246,-8.11053  L -0.769333,-8.13872 L -0.513306,-8.15886 L -0.256775,-8.17096 L 0,-8.17499 L 0.256775,-8.17096 L 0.513306,-8.15886  L 0.769333,-8.13872 L 1.0246,-8.11053 L 1.27884,-8.07434 L 1.53183,-8.0302 L 1.78331,-7.97812 L 2.03304,-7.91817  L 2.28075,-7.85039 L 2.5262,-7.77487 L 2.76918,-7.6917 L 3.00941,-7.60092 L 3.24667,-7.50264 L 3.48074,-7.39696  L 3.71136,-7.28397 L 3.93832,-7.1638 L 4.16141,-7.03656 L 4.38037,-6.90237 L 4.59502,-6.76138 L 4.80513,-6.61371  L 5.01051,-6.4595 L 5.21094,-6.29893 L 5.40622,-6.13216 L 5.59616,-5.9593 L 5.78059,-5.78059 L 5.9593,-5.59616  L 6.13216,-5.40622 L 6.29893,-5.21094 L 6.4595,-5.01051 L 6.61371,-4.80513 L 6.76138,-4.59502 L 6.90237,-4.38037  L 7.03656,-4.16141 L 7.1638,-3.93832 L 7.28397,-3.71136 L 7.39696,-3.48074 L 7.50264,-3.24667 L 7.60092,-3.00941  L 7.6917,-2.76918 L 7.77487,-2.5262 L 7.85039,-2.28075 L 7.91817,-2.03304 L 7.97812,-1.78331 L 8.0302,-1.53183  L 8.07434,-1.27884 L 8.11053,-1.0246 L 8.13872,-0.769333 L 8.15886,-0.513306 L 8.17096,-0.256775 L 8.17499,-0  L 8.17096,0.256775 L 8.15886,0.513306 L 8.13872,0.769333 L 8.11053,1.0246 L 8.07434,1.27884 L 8.0302,1.53183  L 7.97812,1.78331 L 7.91817,2.03304 L 7.85039,2.28075 L 7.77487,2.5262 L 7.6917,2.76918 L 7.60092,3.00941  L 7.50264,3.24667 L 7.39696,3.48074 L 7.28397,3.71136 L 7.1638,3.93832 L 7.03656,4.16141 L 6.90237,4.38037  L 6.76138,4.59502 L 6.61371,4.80513 L 6.4595,5.01051 L 6.29893,5.21094 L 6.13216,5.40622 L 5.9593,5.59616  L 5.78059,5.78059 L 5.59616,5.9593 L 5.40622,6.13216 L 5.21094,6.29893 L 5.01051,6.4595 L 4.80513,6.61371  L 4.59502,6.76138 L 4.38037,6.90237 L 4.16141,7.03656 L 3.93832,7.1638 L 3.71136,7.28397 L 3.48074,7.39696  L 3.24667,7.50264 L 3.00941,7.60092 L 2.76918,7.6917 L 2.5262,7.77487 L 2.28075,7.85039 L 2.03304,7.91817  L 1.78331,7.97812 L 1.53183,8.0302 L 1.27884,8.07434 L 1.0246,8.11053 L 0.769333,8.13872 L 0.513306,8.15886  L 0.256775,8.17096 L 0,8.17499 z M 12,1.4901 L 11.9064,1.48715 L 11.8132,1.47835 L 11.7208,1.4637 L 11.6294,1.44328 L 11.5395,1.41716  L 11.4514,1.38545 L 11.3655,1.34828 L 11.2821,1.30577 L 11.2016,1.25813 L 11.1241,1.20551 L 11.0502,1.14813  L 10.9799,1.08623 L 10.9138,1.02003 L 10.8519,0.949814 L 10.7945,0.875854 L 10.7419,0.798431 L 10.6942,0.71785  L 10.6517,0.634445 L 10.6145,0.548538 L 10.5828,0.460464 L 10.5567,0.37056 L 10.5363,0.279205 L 10.5216,0.186752  L 10.5128,0.0935516 L 10.5099,-0 L 10.5128,-0.0935516 L 10.5216,-0.186752 L 10.5363,-0.279205 L 10.5567,-0.37056  L 10.5828,-0.460464 L 10.6145,-0.548538 L 10.6517,-0.634445 L 10.6942,-0.71785 L 10.7419,-0.798431 L 10.7945,-0.875854  L 10.8519,-0.949814 L 10.9138,-1.02003 L 10.9799,-1.08623 L 11.0502,-1.14813 L 11.1241,-1.20551 L 11.2016,-1.25813  L 11.2821,-1.30577 L 11.3655,-1.34828 L 11.4514,-1.38545 L 11.5395,-1.41716 L 11.6294,-1.44328 L 11.7208,-1.4637  L 11.8132,-1.47835 L 11.9064,-1.48715 L 12,-1.4901 L 12.0936,-1.48715 L 12.1868,-1.47835 L 12.2792,-1.4637  L 12.3706,-1.44328 L 12.4605,-1.41716 L 12.5485,-1.38545 L 12.6344,-1.34828 L 12.7178,-1.30577 L 12.7984,-1.25813  L 12.8759,-1.20551 L 12.9498,-1.14813 L 13.02,-1.08623 L 13.0862,-1.02003 L 13.1481,-0.949814 L 13.2055,-0.875854  L 13.2581,-0.798431 L 13.3058,-0.71785 L 13.3483,-0.634445 L 13.3855,-0.548538 L 13.4172,-0.460464 L 13.4433,-0.37056  L 13.4637,-0.279205 L 13.4783,-0.186752 L 13.4872,-0.0935516 L 13.4901,-0 L 13.4872,0.0935516 L 13.4783,0.186752  L 13.4637,0.279205 L 13.4433,0.37056 L 13.4172,0.460464 L 13.3855,0.548538 L 13.3483,0.634445 L 13.3058,0.71785  L 13.2581,0.798431 L 13.2055,0.875854 L 13.1481,0.949814 L 13.0862,1.02003 L 13.02,1.08623 L 12.9498,1.14813  L 12.8759,1.20551 L 12.7984,1.25813 L 12.7178,1.30577 L 12.6344,1.34828 L 12.5485,1.38545 L 12.4605,1.41716  L 12.3706,1.44328 L 12.2792,1.4637 L 12.1868,1.47835 L 12.0936,1.48715 z M -12,1.4901 L -12.0936,1.48715 L -12.1868,1.47835 L -12.2792,1.4637 L -12.3706,1.44328 L -12.4605,1.41716  L -12.5485,1.38545 L -12.6344,1.34828 L -12.7178,1.30577 L -12.7984,1.25813 L -12.8759,1.20551 L -12.9498,1.14813  L -13.02,1.08623 L -13.0862,1.02003 L -13.1481,0.949814 L -13.2055,0.875854 L -13.2581,0.798431 L -13.3058,0.71785  L -13.3483,0.634445 L -13.3855,0.548538 L -13.4172,0.460464 L -13.4433,0.37056 L -13.4637,0.279205 L -13.4783,0.186752  L -13.4872,0.0935516 L -13.4901,-0 L -13.4872,-0.0935516 L -13.4783,-0.186752 L -13.4637,-0.279205 L -13.4433,-0.37056  L -13.4172,-0.460464 L -13.3855,-0.548538 L -13.3483,-0.634445 L -13.3058,-0.71785 L -13.2581,-0.798431 L -13.2055,-0.875854  L -13.1481,-0.949814 L -13.0862,-1.02003 L -13.02,-1.08623 L -12.9498,-1.14813 L -12.8759,-1.20551 L -12.7984,-1.25813  L -12.7178,-1.30577 L -12.6344,-1.34828 L -12.5485,-1.38545 L -12.4605,-1.41716 L -12.3706,-1.44328 L -12.2792,-1.4637  L -12.1868,-1.47835 L -12.0936,-1.48715 L -12,-1.4901 L -11.9064,-1.48715 L -11.8132,-1.47835 L -11.7208,-1.4637  L -11.6294,-1.44328 L -11.5395,-1.41716 L -11.4514,-1.38545 L -11.3655,-1.34828 L -11.2821,-1.30577 L -11.2016,-1.25813  L -11.1241,-1.20551 L -11.0502,-1.14813 L -10.9799,-1.08623 L -10.9138,-1.02003 L -10.8519,-0.949814 L -10.7945,-0.875854  L -10.7419,-0.798431 L -10.6942,-0.71785 L -10.6517,-0.634445 L -10.6145,-0.548538 L -10.5828,-0.460464 L -10.5567,-0.37056  L -10.5363,-0.279205 L -10.5216,-0.186752 L -10.5128,-0.0935516 L -10.5099,-0 L -10.5128,0.0935516 L -10.5216,0.186752  L -10.5363,0.279205 L -10.5567,0.37056 L -10.5828,0.460464 L -10.6145,0.548538 L -10.6517,0.634445 L -10.6942,0.71785  L -10.7419,0.798431 L -10.7945,0.875854 L -10.8519,0.949814 L -10.9138,1.02003 L -10.9799,1.08623 L -11.0502,1.14813  L -11.1241,1.20551 L -11.2016,1.25813 L -11.2821,1.30577 L -11.3655,1.34828 L -11.4514,1.38545 L -11.5395,1.41716  L -11.6294,1.44328 L -11.7208,1.4637 L -11.8132,1.47835 L -11.9064,1.48715 z M -5.98439,11.8823 L -6.07797,11.8804 L -6.17126,11.8725 L -6.26387,11.8588 L -6.35544,11.8394 L -6.44559,11.8142  L -6.534,11.7834 L -6.62029,11.7471 L -6.70415,11.7055 L -6.7852,11.6587 L -6.86317,11.6069 L -6.93774,11.5503  L -7.00861,11.4892 L -7.07549,11.4237 L -7.13812,11.3541 L -7.19627,11.2807 L -7.24969,11.2039 L -7.29819,11.1238  L -7.34155,11.0408 L -7.37964,10.9553 L -7.41226,10.8676 L -7.43932,10.778 L -7.46069,10.6868 L -7.4763,10.5945  L -7.48608,10.5014 L -7.49001,10.4079 L -7.48805,10.3143 L -7.48022,10.221 L -7.46654,10.1284 L -7.44708,10.0369  L -7.42191,9.9467 L -7.39111,9.85829 L -7.35484,9.772 L -7.31322,9.68816 L -7.26642,9.60709 L -7.21461,9.52911  L -7.15802,9.45454 L -7.09685,9.38368 L -7.03136,9.3168 L -6.96179,9.25417 L -6.88843,9.19601 L -6.81155,9.14259  L -6.73149,9.0941 L -6.64853,9.05074 L -6.56302,9.01266 L -6.47528,8.98003 L -6.38567,8.95297 L -6.29453,8.93159  L -6.20222,8.91599 L -6.10913,8.9062 L -6.01559,8.90228 L -5.92201,8.90424 L -5.82872,8.91208 L -5.73611,8.92575  L -5.64455,8.94521 L -5.5544,8.97038 L -5.46599,9.00117 L -5.3797,9.03745 L -5.29584,9.07907 L -5.21478,9.12587  L -5.13681,9.17767 L -5.06224,9.23427 L -4.99138,9.29544 L -4.9245,9.36093 L -4.86186,9.4305 L -4.80371,9.50386  L -4.75029,9.58073 L -4.7018,9.6608 L -4.65843,9.74376 L -4.62035,9.82927 L -4.58772,9.91702 L -4.56067,10.0066  L -4.53929,10.0978 L -4.52368,10.1901 L -4.5139,10.2832 L -4.50998,10.3767 L -4.51193,10.4703 L -4.51976,10.5636  L -4.53345,10.6562 L -4.5529,10.7477 L -4.57808,10.8379 L -4.60887,10.9263 L -4.64514,11.0126 L -4.68677,11.0965  L -4.73357,11.1775 L -4.78537,11.2555 L -4.84196,11.33 L -4.90314,11.4009 L -4.96863,11.4678 L -5.03819,11.5304  L -5.11156,11.5886 L -5.18843,11.642 L -5.26849,11.6905 L -5.35146,11.7339 L -5.43697,11.7719 L -5.5247,11.8046  L -5.61432,11.8316 L -5.70546,11.853 L -5.79776,11.8686 L -5.89085,11.8784 z M 5.98439,11.8823 L 5.89085,11.8784 L 5.79776,11.8686 L 5.70546,11.853 L 5.61432,11.8316 L 5.5247,11.8046  L 5.43697,11.7719 L 5.35146,11.7339 L 5.26849,11.6905 L 5.18843,11.642 L 5.11156,11.5886 L 5.03819,11.5304  L 4.96863,11.4678 L 4.90314,11.4009 L 4.84196,11.33 L 4.78537,11.2555 L 4.73357,11.1775 L 4.68677,11.0965  L 4.64514,11.0126 L 4.60887,10.9263 L 4.57808,10.8379 L 4.5529,10.7477 L 4.53345,10.6562 L 4.51976,10.5636  L 4.51193,10.4703 L 4.50998,10.3767 L 4.5139,10.2832 L 4.52368,10.1901 L 4.53929,10.0978 L 4.56067,10.0066  L 4.58772,9.91702 L 4.62035,9.82927 L 4.65843,9.74376 L 4.7018,9.6608 L 4.75029,9.58073 L 4.80371,9.50386  L 4.86186,9.4305 L 4.9245,9.36093 L 4.99138,9.29544 L 5.06224,9.23427 L 5.13681,9.17767 L 5.21478,9.12587  L 5.29584,9.07907 L 5.3797,9.03745 L 5.46599,9.00117 L 5.5544,8.97038 L 5.64455,8.94521 L 5.73611,8.92575  L 5.82872,8.91208 L 5.92201,8.90424 L 6.01559,8.90228 L 6.10913,8.9062 L 6.20222,8.91599 L 6.29453,8.93159  L 6.38567,8.95297 L 6.47528,8.98003 L 6.56302,9.01266 L 6.64853,9.05074 L 6.73149,9.0941 L 6.81155,9.14259  L 6.88843,9.19601 L 6.96179,9.25417 L 7.03136,9.3168 L 7.09685,9.38368 L 7.15802,9.45454 L 7.21461,9.52911  L 7.26642,9.60709 L 7.31322,9.68816 L 7.35484,9.772 L 7.39111,9.85829 L 7.42191,9.9467 L 7.44708,10.0369  L 7.46654,10.1284 L 7.48022,10.221 L 7.48805,10.3143 L 7.49001,10.4079 L 7.48608,10.5014 L 7.4763,10.5945  L 7.46069,10.6868 L 7.43932,10.778 L 7.41226,10.8676 L 7.37964,10.9553 L 7.34155,11.0408 L 7.29819,11.1238  L 7.24969,11.2039 L 7.19627,11.2807 L 7.13812,11.3541 L 7.07549,11.4237 L 7.00861,11.4892 L 6.93774,11.5503  L 6.86317,11.6069 L 6.7852,11.6587 L 6.70415,11.7055 L 6.62029,11.7471 L 6.534,11.7834 L 6.44559,11.8142  L 6.35544,11.8394 L 6.26387,11.8588 L 6.17126,11.8725 L 6.07797,11.8804 z M -21.8956,14.5235 L -22.0211,14.5178 L -22.146,14.5043 L -22.2698,14.4829 L -22.3921,14.4538 L -22.5122,14.417  L -22.6298,14.3728 L -22.7444,14.3213 L -22.8556,14.2627 L -22.9628,14.1973 L -23.0657,14.1252 L -23.1639,14.0468  L -23.257,13.9624 L -23.3446,13.8723 L -23.4264,13.7769 L -23.502,13.6766 L -23.5711,13.5717 L -23.6336,13.4627  L -23.6891,13.3499 L -23.7373,13.2339 L -23.7782,13.1152 L -23.8116,12.994 L -23.8373,12.871 L -23.8552,12.7467  L -23.8653,12.6214 L -23.8675,12.4958 L -23.8618,12.3703 L -23.8482,12.2454 L -23.8268,12.1216 L -23.7977,11.9994  L -23.761,11.8792 L -23.7168,11.7616 L -23.6653,11.647 L -23.6067,11.5359 L -23.5412,11.4286 L -23.4691,11.3257  L -23.3908,11.2275 L -23.3064,11.1344 L -23.2163,11.0468 L -23.1209,10.9651 L -23.0206,10.8895 L -22.9156,10.8203  L -22.8066,10.7578 L -22.6939,10.7024 L -22.5779,10.6541 L -22.4591,10.6132 L -22.338,10.5798 L -22.215,10.5541  L -22.0906,10.5362 L -21.9654,10.5261 L -21.8398,10.5239 L -21.7142,10.5296 L -21.5893,10.5432 L -21.4655,10.5646  L -21.3433,10.5937 L -21.2231,10.6304 L -21.1055,10.6746 L -20.9909,10.7262 L -20.8798,10.7847 L -20.7726,10.8502  L -20.6696,10.9223 L -20.5714,11.0007 L -20.4784,11.0851 L -20.3908,11.1751 L -20.309,11.2705 L -20.2334,11.3709  L -20.1642,11.4758 L -20.1018,11.5848 L -20.0463,11.6975 L -19.998,11.8135 L -19.9571,11.9323 L -19.9238,12.0535  L -19.8981,12.1764 L -19.8801,12.3008 L -19.8701,12.426 L -19.8679,12.5517 L -19.8736,12.6772 L -19.8871,12.8021  L -19.9085,12.9259 L -19.9377,13.0481 L -19.9744,13.1683 L -20.0186,13.2859 L -20.0701,13.4005 L -20.1287,13.5116  L -20.1942,13.6189 L -20.2662,13.7218 L -20.3446,13.82 L -20.429,13.9131 L -20.5191,14.0006 L -20.6145,14.0824  L -20.7148,14.158 L -20.8197,14.2272 L -20.9287,14.2896 L -21.0415,14.3451 L -21.1575,14.3934 L -21.2763,14.4343  L -21.3974,14.4677 L -21.5204,14.4933 L -21.6447,14.5113 L -21.77,14.5213 z M 21.7937,14.676 L 21.6681,14.673 L 21.5429,14.662 L 21.4187,14.6432 L 21.2959,14.6167 L 21.175,14.5825  L 21.0565,14.5407 L 20.9408,14.4917 L 20.8285,14.4354 L 20.7199,14.3722 L 20.6155,14.3023 L 20.5157,14.226  L 20.4208,14.1436 L 20.3314,14.0553 L 20.2476,13.9617 L 20.1699,13.8629 L 20.0986,13.7595 L 20.0339,13.6518  L 19.9761,13.5403 L 19.9254,13.4253 L 19.882,13.3074 L 19.8461,13.187 L 19.8178,13.0646 L 19.7973,12.9406  L 19.7846,12.8156 L 19.7798,12.6901 L 19.7828,12.5645 L 19.7938,12.4393 L 19.8126,12.3151 L 19.8391,12.1922  L 19.8733,12.0714 L 19.9151,11.9529 L 19.9642,11.8372 L 20.0204,11.7249 L 20.0836,11.6163 L 20.1535,11.5119  L 20.2298,11.412 L 20.3123,11.3172 L 20.4005,11.2278 L 20.4941,11.144 L 20.5929,11.0663 L 20.6963,10.995  L 20.804,10.9303 L 20.9155,10.8724 L 21.0305,10.8217 L 21.1484,10.7783 L 21.2688,10.7424 L 21.3913,10.7142  L 21.5152,10.6937 L 21.6402,10.681 L 21.7658,10.6761 L 21.8914,10.6792 L 22.0165,10.6902 L 22.1408,10.709  L 22.2636,10.7355 L 22.3845,10.7697 L 22.503,10.8114 L 22.6186,10.8605 L 22.731,10.9168 L 22.8396,10.98  L 22.944,11.0499 L 23.0438,11.1262 L 23.1386,11.2086 L 23.2281,11.2969 L 23.3118,11.3905 L 23.3895,11.4893  L 23.4608,11.5927 L 23.5256,11.7004 L 23.5834,11.8119 L 23.6341,11.9269 L 23.6775,12.0448 L 23.7134,12.1652  L 23.7416,12.2876 L 23.7621,12.4116 L 23.7748,12.5366 L 23.7797,12.6621 L 23.7766,12.7877 L 23.7657,12.9129  L 23.7469,13.0371 L 23.7203,13.1599 L 23.6861,13.2808 L 23.6444,13.3993 L 23.5953,13.515 L 23.539,13.6273  L 23.4758,13.7359 L 23.4059,13.8403 L 23.3296,13.9402 L 23.2472,14.035 L 23.159,14.1244 L 23.0653,14.2082  L 22.9666,14.2859 L 22.8631,14.3572 L 22.7554,14.4219 L 22.6439,14.4798 L 22.5289,14.5305 L 22.411,14.5739  L 22.2906,14.6097 L 22.1682,14.638 L 22.0442,14.6585 L 21.9192,14.6712 z M -0.0949402,27.1998 L -0.220505,27.1954 L -0.345551,27.1832 L -0.469574,27.1631 L -0.592102,27.1353 L -0.712631,27.0998  L -0.830688,27.0568 L -0.945831,27.0065 L -1.05757,26.9491 L -1.1655,26.8848 L -1.26917,26.8138 L -1.36818,26.7364  L -1.46213,26.653 L -1.55066,26.5638 L -1.63342,26.4693 L -1.71008,26.3698 L -1.78035,26.2656 L -1.84392,26.1572  L -1.90057,26.0451 L -1.95007,25.9296 L -1.99222,25.8112 L -2.02684,25.6905 L -2.05383,25.5677 L -2.07304,25.4436  L -2.08444,25.3185 L -2.08795,25.1929 L -2.08356,25.0673 L -2.0713,24.9422 L -2.05121,24.8182 L -2.02338,24.6957  L -1.9879,24.5752 L -1.94493,24.4571 L -1.89462,24.342 L -1.83719,24.2302 L -1.77286,24.1223 L -1.70187,24.0186  L -1.62453,23.9196 L -1.54111,23.8257 L -1.45195,23.7371 L -1.35742,23.6544 L -1.25787,23.5777 L -1.1537,23.5074  L -1.04533,23.4439 L -0.933197,23.3872 L -0.817703,23.3377 L -0.699341,23.2956 L -0.578568,23.2609 L -0.455856,23.234  L -0.331696,23.2148 L -0.206573,23.2034 L -0.0809784,23.1998 L 0.0445709,23.2042 L 0.169617,23.2165 L 0.29364,23.2366  L 0.416168,23.2644 L 0.536697,23.2999 L 0.65477,23.3429 L 0.769897,23.3932 L 0.881653,23.4506 L 0.989563,23.5149  L 1.09325,23.5859 L 1.19225,23.6633 L 1.28621,23.7467 L 1.37474,23.8358 L 1.45749,23.9304 L 1.53415,24.0299  L 1.60442,24.1341 L 1.668,24.2425 L 1.72464,24.3546 L 1.77414,24.4701 L 1.81628,24.5885 L 1.85092,24.7092  L 1.8779,24.8319 L 1.89713,24.9561 L 1.90851,25.0812 L 1.91202,25.2068 L 1.90762,25.3324 L 1.89537,25.4574  L 1.87529,25.5815 L 1.84744,25.704 L 1.81197,25.8245 L 1.769,25.9426 L 1.7187,26.0577 L 1.66127,26.1695  L 1.59694,26.2774 L 1.52596,26.3811 L 1.44859,26.4801 L 1.36517,26.574 L 1.27603,26.6626 L 1.18149,26.7453  L 1.13232,26.7844 L 1.03041,26.8579 L 0.924103,26.9249 L 0.813782,26.985 L 0.699905,27.0381 L 0.582932,27.084  L 0.463303,27.1224 L 0.341492,27.1532 L 0.218002,27.1763 L 0.0932922,27.1916 L -0.0321198,27.1991 z "
     stroke="black"
     fill="lightgray"
     stroke-width="0.5"
     id="path6"
     style="fill:none;stroke:#000000;stroke-opacity:1;stroke-width:0.002;stroke-miterlimit:4;stroke-dasharray:none" />
</svg>
