<?xml version="1.0" encoding="UTF-8" standalone="no"?>
<!-- Created with Inkscape (http://www.inkscape.org/) -->

<svg
   xmlns:dc="http://purl.org/dc/elements/1.1/"
   xmlns:cc="http://creativecommons.org/ns#"
   xmlns:rdf="http://www.w3.org/1999/02/22-rdf-syntax-ns#"
   xmlns:svg="http://www.w3.org/2000/svg"
   xmlns="http://www.w3.org/2000/svg"
   xmlns:xlink="http://www.w3.org/1999/xlink"
   xmlns:sodipodi="http://sodipodi.sourceforge.net/DTD/sodipodi-0.dtd"
   xmlns:inkscape="http://www.inkscape.org/namespaces/inkscape"
   width="2160"
   height="1620"
   id="svg3063"
   version="1.1"
   inkscape:version="0.48.4 r9939"
   sodipodi:docname="Inset Bottom Panel.pdf">
  <defs
     id="defs3065" />
  <sodipodi:namedview
     id="base"
     pagecolor="#ffffff"
     bordercolor="#666666"
     borderopacity="1.0"
     inkscape:pageopacity="0.0"
     inkscape:pageshadow="2"
     inkscape:zoom="0.70710678"
     inkscape:cx="120.19124"
     inkscape:cy="1121.7217"
     inkscape:document-units="mm"
     inkscape:current-layer="layer1"
     showgrid="false"
     units="in"
     showborder="true"
     inkscape:showpageshadow="true"
     inkscape:window-width="1920"
     inkscape:window-height="1017"
     inkscape:window-x="-8"
     inkscape:window-y="-8"
     inkscape:window-maximized="1" />
  <metadata
     id="metadata3068">
    <rdf:RDF>
      <cc:Work
         rdf:about="">
        <dc:format>image/svg+xml</dc:format>
        <dc:type
           rdf:resource="http://purl.org/dc/dcmitype/StillImage" />
        <dc:title></dc:title>
      </cc:Work>
    </rdf:RDF>
  </metadata>
  <g
     inkscape:label="Layer 1"
     inkscape:groupmode="layer"
     id="layer1"
     transform="translate(0,567.64025)"
     style="display:inline">
    <g
       id="layer1-9"
       inkscape:label="1.5 Metre Square Grid"
       style="fill:#0000ff;fill-opacity:1;stroke:#000000;stroke-width:55.51004028;stroke-miterlimit:4;stroke-opacity:1;stroke-dasharray:none;display:none"
       transform="matrix(0.35107502,0,0,0.35107502,-1448.3591,-568.81831)">
      <g
         style="fill:#0000ff;fill-opacity:1;stroke:#000000;stroke-width:55.51004028;stroke-miterlimit:4;stroke-opacity:1;stroke-dasharray:none"
         transform="translate(200,200)"
         id="g2906">
        <path
           inkscape:connector-curvature="0"
           id="grid15Horizontal"
           d="m 0,0 3900,0 0,150 L 0,150 0,0 z"
           style="fill:#0000ff;fill-opacity:1;stroke:#000000;stroke-width:55.51004028;stroke-miterlimit:4;stroke-opacity:1;stroke-dasharray:none" />
        <use
           style="fill:#0000ff;fill-opacity:1;stroke:#000000;stroke-width:55.51004028;stroke-miterlimit:4;stroke-opacity:1;stroke-dasharray:none"
           xlink:href="#grid15Horizontal"
           y="150"
           id="use2909"
           x="0"
           width="4400"
           height="3400" />
        <use
           style="fill:#0000ff;fill-opacity:1;stroke:#000000;stroke-width:55.51004028;stroke-miterlimit:4;stroke-opacity:1;stroke-dasharray:none"
           xlink:href="#grid15Horizontal"
           y="300"
           id="use2911"
           x="0"
           width="4400"
           height="3400" />
        <use
           style="fill:#0000ff;fill-opacity:1;stroke:#000000;stroke-width:55.51004028;stroke-miterlimit:4;stroke-opacity:1;stroke-dasharray:none"
           xlink:href="#grid15Horizontal"
           y="450"
           id="use2913"
           x="0"
           width="4400"
           height="3400" />
        <use
           style="fill:#0000ff;fill-opacity:1;stroke:#000000;stroke-width:55.51004028;stroke-miterlimit:4;stroke-opacity:1;stroke-dasharray:none"
           xlink:href="#grid15Horizontal"
           y="600"
           id="use2915"
           x="0"
           width="4400"
           height="3400" />
        <use
           style="fill:#0000ff;fill-opacity:1;stroke:#000000;stroke-width:55.51004028;stroke-miterlimit:4;stroke-opacity:1;stroke-dasharray:none"
           xlink:href="#grid15Horizontal"
           y="750"
           id="use2917"
           x="0"
           width="4400"
           height="3400" />
        <use
           style="fill:#0000ff;fill-opacity:1;stroke:#000000;stroke-width:55.51004028;stroke-miterlimit:4;stroke-opacity:1;stroke-dasharray:none"
           xlink:href="#grid15Horizontal"
           y="900"
           id="use2919"
           x="0"
           width="4400"
           height="3400" />
        <use
           style="fill:#0000ff;fill-opacity:1;stroke:#000000;stroke-width:55.51004028;stroke-miterlimit:4;stroke-opacity:1;stroke-dasharray:none"
           xlink:href="#grid15Horizontal"
           y="1050"
           id="use2921"
           x="0"
           width="4400"
           height="3400" />
        <use
           style="fill:#0000ff;fill-opacity:1;stroke:#000000;stroke-width:55.51004028;stroke-miterlimit:4;stroke-opacity:1;stroke-dasharray:none"
           xlink:href="#grid15Horizontal"
           y="1200"
           id="use2923"
           x="0"
           width="4400"
           height="3400" />
        <use
           style="fill:#0000ff;fill-opacity:1;stroke:#000000;stroke-width:55.51004028;stroke-miterlimit:4;stroke-opacity:1;stroke-dasharray:none"
           xlink:href="#grid15Horizontal"
           y="1350"
           id="use2925"
           x="0"
           width="4400"
           height="3400" />
        <use
           style="fill:#0000ff;fill-opacity:1;stroke:#000000;stroke-width:55.51004028;stroke-miterlimit:4;stroke-opacity:1;stroke-dasharray:none"
           xlink:href="#grid15Horizontal"
           y="1500"
           id="use2927"
           x="0"
           width="4400"
           height="3400" />
        <use
           style="fill:#0000ff;fill-opacity:1;stroke:#000000;stroke-width:55.51004028;stroke-miterlimit:4;stroke-opacity:1;stroke-dasharray:none"
           xlink:href="#grid15Horizontal"
           y="1650"
           id="use2929"
           x="0"
           width="4400"
           height="3400" />
        <use
           style="fill:#0000ff;fill-opacity:1;stroke:#000000;stroke-width:55.51004028;stroke-miterlimit:4;stroke-opacity:1;stroke-dasharray:none"
           xlink:href="#grid15Horizontal"
           y="1800"
           id="use2931"
           x="0"
           width="4400"
           height="3400" />
        <use
           style="fill:#0000ff;fill-opacity:1;stroke:#000000;stroke-width:55.51004028;stroke-miterlimit:4;stroke-opacity:1;stroke-dasharray:none"
           xlink:href="#grid15Horizontal"
           y="1950"
           id="use2933"
           x="0"
           width="4400"
           height="3400" />
        <use
           style="fill:#0000ff;fill-opacity:1;stroke:#000000;stroke-width:55.51004028;stroke-miterlimit:4;stroke-opacity:1;stroke-dasharray:none"
           xlink:href="#grid15Horizontal"
           y="2100"
           id="use2935"
           x="0"
           width="4400"
           height="3400" />
        <use
           style="fill:#0000ff;fill-opacity:1;stroke:#000000;stroke-width:55.51004028;stroke-miterlimit:4;stroke-opacity:1;stroke-dasharray:none"
           xlink:href="#grid15Horizontal"
           y="2250"
           id="use2937"
           x="0"
           width="4400"
           height="3400" />
        <use
           style="fill:#0000ff;fill-opacity:1;stroke:#000000;stroke-width:55.51004028;stroke-miterlimit:4;stroke-opacity:1;stroke-dasharray:none"
           xlink:href="#grid15Horizontal"
           y="2400"
           id="use2939"
           x="0"
           width="4400"
           height="3400" />
        <use
           style="fill:#0000ff;fill-opacity:1;stroke:#000000;stroke-width:55.51004028;stroke-miterlimit:4;stroke-opacity:1;stroke-dasharray:none"
           xlink:href="#grid15Horizontal"
           y="2550"
           id="use2941"
           x="0"
           width="4400"
           height="3400" />
        <use
           style="fill:#0000ff;fill-opacity:1;stroke:#000000;stroke-width:55.51004028;stroke-miterlimit:4;stroke-opacity:1;stroke-dasharray:none"
           xlink:href="#grid15Horizontal"
           y="2700"
           id="use2943"
           x="0"
           width="4400"
           height="3400" />
        <use
           style="fill:#0000ff;fill-opacity:1;stroke:#000000;stroke-width:55.51004028;stroke-miterlimit:4;stroke-opacity:1;stroke-dasharray:none"
           xlink:href="#grid15Horizontal"
           y="2850"
           id="use2945"
           x="0"
           width="4400"
           height="3400" />
        <path
           inkscape:connector-curvature="0"
           id="grid15Vertical"
           d="M 0,0 150,0 150,3000 0,3000 0,0 z"
           style="fill:#0000ff;fill-opacity:1;stroke:#000000;stroke-width:55.51004028;stroke-miterlimit:4;stroke-opacity:1;stroke-dasharray:none" />
        <use
           style="fill:#0000ff;fill-opacity:1;stroke:#000000;stroke-width:55.51004028;stroke-miterlimit:4;stroke-opacity:1;stroke-dasharray:none"
           xlink:href="#grid15Vertical"
           x="150"
           id="use2948"
           y="0"
           width="4400"
           height="3400" />
        <use
           style="fill:#0000ff;fill-opacity:1;stroke:#000000;stroke-width:55.51004028;stroke-miterlimit:4;stroke-opacity:1;stroke-dasharray:none"
           xlink:href="#grid15Vertical"
           x="300"
           id="use2950"
           y="0"
           width="4400"
           height="3400" />
        <use
           style="fill:#0000ff;fill-opacity:1;stroke:#000000;stroke-width:55.51004028;stroke-miterlimit:4;stroke-opacity:1;stroke-dasharray:none"
           xlink:href="#grid15Vertical"
           x="450"
           id="use2952"
           y="0"
           width="4400"
           height="3400" />
        <use
           style="fill:#0000ff;fill-opacity:1;stroke:#000000;stroke-width:55.51004028;stroke-miterlimit:4;stroke-opacity:1;stroke-dasharray:none"
           xlink:href="#grid15Vertical"
           x="600"
           id="use2954"
           y="0"
           width="4400"
           height="3400" />
        <use
           style="fill:#0000ff;fill-opacity:1;stroke:#000000;stroke-width:55.51004028;stroke-miterlimit:4;stroke-opacity:1;stroke-dasharray:none"
           xlink:href="#grid15Vertical"
           x="750"
           id="use2956"
           y="0"
           width="4400"
           height="3400" />
        <use
           style="fill:#0000ff;fill-opacity:1;stroke:#000000;stroke-width:55.51004028;stroke-miterlimit:4;stroke-opacity:1;stroke-dasharray:none"
           xlink:href="#grid15Vertical"
           x="900"
           id="use2958"
           y="0"
           width="4400"
           height="3400" />
        <use
           style="fill:#0000ff;fill-opacity:1;stroke:#000000;stroke-width:55.51004028;stroke-miterlimit:4;stroke-opacity:1;stroke-dasharray:none"
           xlink:href="#grid15Vertical"
           x="1050"
           id="use2960"
           y="0"
           width="4400"
           height="3400" />
        <use
           style="fill:#0000ff;fill-opacity:1;stroke:#000000;stroke-width:55.51004028;stroke-miterlimit:4;stroke-opacity:1;stroke-dasharray:none"
           xlink:href="#grid15Vertical"
           x="1200"
           id="use2962"
           y="0"
           width="4400"
           height="3400" />
        <use
           style="fill:#0000ff;fill-opacity:1;stroke:#000000;stroke-width:55.51004028;stroke-miterlimit:4;stroke-opacity:1;stroke-dasharray:none"
           xlink:href="#grid15Vertical"
           x="1350"
           id="use2964"
           y="0"
           width="4400"
           height="3400" />
        <use
           style="fill:#0000ff;fill-opacity:1;stroke:#000000;stroke-width:55.51004028;stroke-miterlimit:4;stroke-opacity:1;stroke-dasharray:none"
           xlink:href="#grid15Vertical"
           x="1500"
           id="use2966"
           y="0"
           width="4400"
           height="3400" />
        <use
           style="fill:#0000ff;fill-opacity:1;stroke:#000000;stroke-width:55.51004028;stroke-miterlimit:4;stroke-opacity:1;stroke-dasharray:none"
           xlink:href="#grid15Vertical"
           x="1650"
           id="use2968"
           y="0"
           width="4400"
           height="3400" />
        <use
           style="fill:#0000ff;fill-opacity:1;stroke:#000000;stroke-width:55.51004028;stroke-miterlimit:4;stroke-opacity:1;stroke-dasharray:none"
           xlink:href="#grid15Vertical"
           x="1800"
           id="use2970"
           y="0"
           width="4400"
           height="3400" />
        <use
           style="fill:#0000ff;fill-opacity:1;stroke:#000000;stroke-width:55.51004028;stroke-miterlimit:4;stroke-opacity:1;stroke-dasharray:none"
           xlink:href="#grid15Vertical"
           x="1950"
           id="use2972"
           y="0"
           width="4400"
           height="3400" />
        <use
           style="fill:#0000ff;fill-opacity:1;stroke:#000000;stroke-width:55.51004028;stroke-miterlimit:4;stroke-opacity:1;stroke-dasharray:none"
           xlink:href="#grid15Vertical"
           x="2100"
           id="use2974"
           y="0"
           width="4400"
           height="3400" />
        <use
           style="fill:#0000ff;fill-opacity:1;stroke:#000000;stroke-width:55.51004028;stroke-miterlimit:4;stroke-opacity:1;stroke-dasharray:none"
           xlink:href="#grid15Vertical"
           x="2250"
           id="use2976"
           y="0"
           width="4400"
           height="3400" />
        <use
           style="fill:#0000ff;fill-opacity:1;stroke:#000000;stroke-width:55.51004028;stroke-miterlimit:4;stroke-opacity:1;stroke-dasharray:none"
           xlink:href="#grid15Vertical"
           x="2400"
           id="use2978"
           y="0"
           width="4400"
           height="3400" />
        <use
           style="fill:#0000ff;fill-opacity:1;stroke:#000000;stroke-width:55.51004028;stroke-miterlimit:4;stroke-opacity:1;stroke-dasharray:none"
           xlink:href="#grid15Vertical"
           x="2550"
           id="use2980"
           y="0"
           width="4400"
           height="3400" />
        <use
           style="fill:#0000ff;fill-opacity:1;stroke:#000000;stroke-width:55.51004028;stroke-miterlimit:4;stroke-opacity:1;stroke-dasharray:none"
           xlink:href="#grid15Vertical"
           x="2700"
           id="use2982"
           y="0"
           width="4400"
           height="3400" />
        <use
           style="fill:#0000ff;fill-opacity:1;stroke:#000000;stroke-width:55.51004028;stroke-miterlimit:4;stroke-opacity:1;stroke-dasharray:none"
           xlink:href="#grid15Vertical"
           x="2850"
           id="use2984"
           y="0"
           width="4400"
           height="3400" />
        <use
           style="fill:#0000ff;fill-opacity:1;stroke:#000000;stroke-width:55.51004028;stroke-miterlimit:4;stroke-opacity:1;stroke-dasharray:none"
           xlink:href="#grid15Vertical"
           x="3000"
           id="use2986"
           y="0"
           width="4400"
           height="3400" />
        <use
           style="fill:#0000ff;fill-opacity:1;stroke:#000000;stroke-width:55.51004028;stroke-miterlimit:4;stroke-opacity:1;stroke-dasharray:none"
           xlink:href="#grid15Vertical"
           x="3150"
           id="use2988"
           y="0"
           width="4400"
           height="3400" />
        <use
           style="fill:#0000ff;fill-opacity:1;stroke:#000000;stroke-width:55.51004028;stroke-miterlimit:4;stroke-opacity:1;stroke-dasharray:none"
           xlink:href="#grid15Vertical"
           x="3300"
           id="use2990"
           y="0"
           width="4400"
           height="3400" />
        <use
           style="fill:#0000ff;fill-opacity:1;stroke:#000000;stroke-width:55.51004028;stroke-miterlimit:4;stroke-opacity:1;stroke-dasharray:none"
           xlink:href="#grid15Vertical"
           x="3450"
           id="use2992"
           y="0"
           width="4400"
           height="3400" />
        <use
           style="fill:#0000ff;fill-opacity:1;stroke:#000000;stroke-width:55.51004028;stroke-miterlimit:4;stroke-opacity:1;stroke-dasharray:none"
           xlink:href="#grid15Vertical"
           x="3600"
           id="use2994"
           y="0"
           width="4400"
           height="3400" />
        <use
           style="fill:#0000ff;fill-opacity:1;stroke:#000000;stroke-width:55.51004028;stroke-miterlimit:4;stroke-opacity:1;stroke-dasharray:none"
           xlink:href="#grid15Vertical"
           x="3750"
           id="use2996"
           y="0"
           width="4400"
           height="3400" />
      </g>
    </g>
    <g
       id="layer2"
       inkscape:label="2 Metre Square Grid"
       style="fill:#0000ff;fill-opacity:1;stroke:#000000;stroke-width:55.51004028;stroke-miterlimit:4;stroke-opacity:1;stroke-dasharray:none;display:none"
       transform="matrix(0.35107502,0,0,0.35107502,-1448.3591,-568.81831)">
      <g
         style="fill:#0000ff;fill-opacity:1;stroke:#000000;stroke-width:55.51004028;stroke-miterlimit:4;stroke-opacity:1;stroke-dasharray:none"
         transform="translate(200,200)"
         id="g2836">
        <path
           inkscape:connector-curvature="0"
           id="grid2Horizontal"
           d="m 0,0 4000,0 0,200 L 0,200 0,0 z"
           style="fill:#0000ff;fill-opacity:1;stroke:#000000;stroke-width:55.51004028;stroke-miterlimit:4;stroke-opacity:1;stroke-dasharray:none" />
        <use
           style="fill:#0000ff;fill-opacity:1;stroke:#000000;stroke-width:55.51004028;stroke-miterlimit:4;stroke-opacity:1;stroke-dasharray:none"
           xlink:href="#grid2Horizontal"
           y="200"
           id="use2839"
           x="0"
           width="4400"
           height="3400" />
        <use
           style="fill:#0000ff;fill-opacity:1;stroke:#000000;stroke-width:55.51004028;stroke-miterlimit:4;stroke-opacity:1;stroke-dasharray:none"
           xlink:href="#grid2Horizontal"
           y="400"
           id="use2841"
           x="0"
           width="4400"
           height="3400" />
        <use
           style="fill:#0000ff;fill-opacity:1;stroke:#000000;stroke-width:55.51004028;stroke-miterlimit:4;stroke-opacity:1;stroke-dasharray:none"
           xlink:href="#grid2Horizontal"
           y="600"
           id="use2843"
           x="0"
           width="4400"
           height="3400" />
        <use
           style="fill:#0000ff;fill-opacity:1;stroke:#000000;stroke-width:55.51004028;stroke-miterlimit:4;stroke-opacity:1;stroke-dasharray:none"
           xlink:href="#grid2Horizontal"
           y="800"
           id="use2845"
           x="0"
           width="4400"
           height="3400" />
        <use
           style="fill:#0000ff;fill-opacity:1;stroke:#000000;stroke-width:55.51004028;stroke-miterlimit:4;stroke-opacity:1;stroke-dasharray:none"
           xlink:href="#grid2Horizontal"
           y="1000"
           id="use2847"
           x="0"
           width="4400"
           height="3400" />
        <use
           style="fill:#0000ff;fill-opacity:1;stroke:#000000;stroke-width:55.51004028;stroke-miterlimit:4;stroke-opacity:1;stroke-dasharray:none"
           xlink:href="#grid2Horizontal"
           y="1200"
           id="use2849"
           x="0"
           width="4400"
           height="3400" />
        <use
           style="fill:#0000ff;fill-opacity:1;stroke:#000000;stroke-width:55.51004028;stroke-miterlimit:4;stroke-opacity:1;stroke-dasharray:none"
           xlink:href="#grid2Horizontal"
           y="1400"
           id="use2851"
           x="0"
           width="4400"
           height="3400" />
        <use
           style="fill:#0000ff;fill-opacity:1;stroke:#000000;stroke-width:55.51004028;stroke-miterlimit:4;stroke-opacity:1;stroke-dasharray:none"
           xlink:href="#grid2Horizontal"
           y="1600"
           id="use2853"
           x="0"
           width="4400"
           height="3400" />
        <use
           style="fill:#0000ff;fill-opacity:1;stroke:#000000;stroke-width:55.51004028;stroke-miterlimit:4;stroke-opacity:1;stroke-dasharray:none"
           xlink:href="#grid2Horizontal"
           y="1800"
           id="use2855"
           x="0"
           width="4400"
           height="3400" />
        <use
           style="fill:#0000ff;fill-opacity:1;stroke:#000000;stroke-width:55.51004028;stroke-miterlimit:4;stroke-opacity:1;stroke-dasharray:none"
           xlink:href="#grid2Horizontal"
           y="2000"
           id="use2857"
           x="0"
           width="4400"
           height="3400" />
        <use
           style="fill:#0000ff;fill-opacity:1;stroke:#000000;stroke-width:55.51004028;stroke-miterlimit:4;stroke-opacity:1;stroke-dasharray:none"
           xlink:href="#grid2Horizontal"
           y="2200"
           id="use2859"
           x="0"
           width="4400"
           height="3400" />
        <use
           style="fill:#0000ff;fill-opacity:1;stroke:#000000;stroke-width:55.51004028;stroke-miterlimit:4;stroke-opacity:1;stroke-dasharray:none"
           xlink:href="#grid2Horizontal"
           y="2400"
           id="use2861"
           x="0"
           width="4400"
           height="3400" />
        <use
           style="fill:#0000ff;fill-opacity:1;stroke:#000000;stroke-width:55.51004028;stroke-miterlimit:4;stroke-opacity:1;stroke-dasharray:none"
           xlink:href="#grid2Horizontal"
           y="2600"
           id="use2863"
           x="0"
           width="4400"
           height="3400" />
        <use
           style="fill:#0000ff;fill-opacity:1;stroke:#000000;stroke-width:55.51004028;stroke-miterlimit:4;stroke-opacity:1;stroke-dasharray:none"
           xlink:href="#grid2Horizontal"
           y="2800"
           id="use2865"
           x="0"
           width="4400"
           height="3400" />
        <path
           inkscape:connector-curvature="0"
           id="grid2Vertical"
           d="M 0,0 200,0 200,3000 0,3000 0,0 z"
           style="fill:#0000ff;fill-opacity:1;stroke:#000000;stroke-width:55.51004028;stroke-miterlimit:4;stroke-opacity:1;stroke-dasharray:none" />
        <use
           style="fill:#0000ff;fill-opacity:1;stroke:#000000;stroke-width:55.51004028;stroke-miterlimit:4;stroke-opacity:1;stroke-dasharray:none"
           xlink:href="#grid2Vertical"
           x="200"
           id="use2868"
           y="0"
           width="4400"
           height="3400" />
        <use
           style="fill:#0000ff;fill-opacity:1;stroke:#000000;stroke-width:55.51004028;stroke-miterlimit:4;stroke-opacity:1;stroke-dasharray:none"
           xlink:href="#grid2Vertical"
           x="400"
           id="use2870"
           y="0"
           width="4400"
           height="3400" />
        <use
           style="fill:#0000ff;fill-opacity:1;stroke:#000000;stroke-width:55.51004028;stroke-miterlimit:4;stroke-opacity:1;stroke-dasharray:none"
           xlink:href="#grid2Vertical"
           x="600"
           id="use2872"
           y="0"
           width="4400"
           height="3400" />
        <use
           style="fill:#0000ff;fill-opacity:1;stroke:#000000;stroke-width:55.51004028;stroke-miterlimit:4;stroke-opacity:1;stroke-dasharray:none"
           xlink:href="#grid2Vertical"
           x="800"
           id="use2874"
           y="0"
           width="4400"
           height="3400" />
        <use
           style="fill:#0000ff;fill-opacity:1;stroke:#000000;stroke-width:55.51004028;stroke-miterlimit:4;stroke-opacity:1;stroke-dasharray:none"
           xlink:href="#grid2Vertical"
           x="1000"
           id="use2876"
           y="0"
           width="4400"
           height="3400" />
        <use
           style="fill:#0000ff;fill-opacity:1;stroke:#000000;stroke-width:55.51004028;stroke-miterlimit:4;stroke-opacity:1;stroke-dasharray:none"
           xlink:href="#grid2Vertical"
           x="1200"
           id="use2878"
           y="0"
           width="4400"
           height="3400" />
        <use
           style="fill:#0000ff;fill-opacity:1;stroke:#000000;stroke-width:55.51004028;stroke-miterlimit:4;stroke-opacity:1;stroke-dasharray:none"
           xlink:href="#grid2Vertical"
           x="1400"
           id="use2880"
           y="0"
           width="4400"
           height="3400" />
        <use
           style="fill:#0000ff;fill-opacity:1;stroke:#000000;stroke-width:55.51004028;stroke-miterlimit:4;stroke-opacity:1;stroke-dasharray:none"
           xlink:href="#grid2Vertical"
           x="1600"
           id="use2882"
           y="0"
           width="4400"
           height="3400" />
        <use
           style="fill:#0000ff;fill-opacity:1;stroke:#000000;stroke-width:55.51004028;stroke-miterlimit:4;stroke-opacity:1;stroke-dasharray:none"
           xlink:href="#grid2Vertical"
           x="1800"
           id="use2884"
           y="0"
           width="4400"
           height="3400" />
        <use
           style="fill:#0000ff;fill-opacity:1;stroke:#000000;stroke-width:55.51004028;stroke-miterlimit:4;stroke-opacity:1;stroke-dasharray:none"
           xlink:href="#grid2Vertical"
           x="2000"
           id="use2886"
           y="0"
           width="4400"
           height="3400" />
        <use
           style="fill:#0000ff;fill-opacity:1;stroke:#000000;stroke-width:55.51004028;stroke-miterlimit:4;stroke-opacity:1;stroke-dasharray:none"
           xlink:href="#grid2Vertical"
           x="2200"
           id="use2888"
           y="0"
           width="4400"
           height="3400" />
        <use
           style="fill:#0000ff;fill-opacity:1;stroke:#000000;stroke-width:55.51004028;stroke-miterlimit:4;stroke-opacity:1;stroke-dasharray:none"
           xlink:href="#grid2Vertical"
           x="2400"
           id="use2890"
           y="0"
           width="4400"
           height="3400" />
        <use
           style="fill:#0000ff;fill-opacity:1;stroke:#000000;stroke-width:55.51004028;stroke-miterlimit:4;stroke-opacity:1;stroke-dasharray:none"
           xlink:href="#grid2Vertical"
           x="2600"
           id="use2892"
           y="0"
           width="4400"
           height="3400" />
        <use
           style="fill:#0000ff;fill-opacity:1;stroke:#000000;stroke-width:55.51004028;stroke-miterlimit:4;stroke-opacity:1;stroke-dasharray:none"
           xlink:href="#grid2Vertical"
           x="2800"
           id="use2894"
           y="0"
           width="4400"
           height="3400" />
        <use
           style="fill:#0000ff;fill-opacity:1;stroke:#000000;stroke-width:55.51004028;stroke-miterlimit:4;stroke-opacity:1;stroke-dasharray:none"
           xlink:href="#grid2Vertical"
           x="3000"
           id="use2896"
           y="0"
           width="4400"
           height="3400" />
        <use
           style="fill:#0000ff;fill-opacity:1;stroke:#000000;stroke-width:55.51004028;stroke-miterlimit:4;stroke-opacity:1;stroke-dasharray:none"
           xlink:href="#grid2Vertical"
           x="3200"
           id="use2898"
           y="0"
           width="4400"
           height="3400" />
        <use
           style="fill:#0000ff;fill-opacity:1;stroke:#000000;stroke-width:55.51004028;stroke-miterlimit:4;stroke-opacity:1;stroke-dasharray:none"
           xlink:href="#grid2Vertical"
           x="3400"
           id="use2900"
           y="0"
           width="4400"
           height="3400" />
        <use
           style="fill:#0000ff;fill-opacity:1;stroke:#000000;stroke-width:55.51004028;stroke-miterlimit:4;stroke-opacity:1;stroke-dasharray:none"
           xlink:href="#grid2Vertical"
           x="3600"
           id="use2902"
           y="0"
           width="4400"
           height="3400" />
        <use
           style="fill:#0000ff;fill-opacity:1;stroke:#000000;stroke-width:55.51004028;stroke-miterlimit:4;stroke-opacity:1;stroke-dasharray:none"
           xlink:href="#grid2Vertical"
           x="3800"
           id="use2904"
           y="0"
           width="4400"
           height="3400" />
      </g>
    </g>
    <path
       style="font-size:medium;font-style:normal;font-variant:normal;font-weight:normal;font-stretch:normal;text-indent:0;text-align:start;text-decoration:none;line-height:normal;letter-spacing:normal;word-spacing:normal;text-transform:none;direction:ltr;block-progression:tb;writing-mode:lr-tb;text-anchor:start;baseline-shift:baseline;color:#000000;fill:none;stroke:#000000;stroke-width:0.07569238;stroke-miterlimit:4;stroke-opacity:1;stroke-dasharray:none;marker:none;visibility:visible;display:inline;overflow:visible;enable-background:accumulate;font-family:Sans;-inkscape-font-specification:Sans"
       d="m 496.80136,-492.88951 -11.56222,20.02686 8.51813,0 11.29519,-19.70643 -0.18692,-0.32043 -8.06418,0 z m 71.85667,0 -0.18688,0.32043 11.29515,19.70643 22.51024,0 11.29525,-19.70643 -0.18697,-0.32043 -44.72679,0 z m 108.54606,0 -0.18696,0.32043 11.29524,19.70643 6.91593,0 -11.56227,-20.02686 -6.46194,0 z m -151.69744,12.12289 -11.3219,19.7066 11.3219,19.70642 22.48357,0 11.3219,-19.70642 -11.3219,-19.7066 -22.48357,0 z m 108.54606,0 -11.3219,19.7066 11.3219,19.70642 22.48349,0 11.3219,-19.70642 -11.3219,-19.7066 -22.48349,0 z m -162.45859,31.56255 -11.50881,19.92004 11.16168,19.43948 22.48357,0 11.3219,-19.70642 -11.29519,-19.6531 -22.16315,0 z m 108.17218,0 -11.29515,19.6531 11.3219,19.70642 22.48349,0 11.29525,-19.70642 -11.29525,-19.6531 -22.51024,0 z m 108.54607,0 -11.29524,19.6531 11.29524,19.70642 22.4835,0 10.38735,-18.07761 -12.28319,-21.28191 -20.58766,0 z m -162.80572,31.50905 -11.2952,19.67976 11.2952,19.70651 22.48357,0 11.29524,-19.70651 -11.29524,-19.67976 -22.48357,0 z m 108.54606,0 -11.29524,19.67976 11.29524,19.70651 22.48349,0 11.29524,-19.70651 -11.29524,-19.67976 -22.48349,0 z m -187.63913,12.09623 -15.75453,27.29004 8.81186,0 11.29519,-19.70651 -4.35252,-7.58353 z m 288.44136,1.38853 -3.55149,6.195 11.29524,19.70651 7.2097,0 -14.95345,-25.90151 z m -263.60795,18.0243 -11.2952,19.67976 11.2685,19.70651 0.0266,0 22.48357,0 0.0266,0 11.26849,-19.70651 -11.29519,-19.67976 -22.48358,0 z m 108.54606,0 -11.29524,19.6531 11.26849,19.70643 0.0265,0 22.48349,0 11.29525,-19.67977 -11.29525,-19.67976 -22.48349,0 z m 108.51932,0 -11.29524,19.67976 11.29524,19.70651 22.4835,0 0.0265,0 11.26849,-19.70651 -11.29523,-19.67976 -22.4835,0 z m -271.29834,31.50905 -10.73444,18.61166 -0.61417,1.0681 11.2952,19.70652 22.51029,0 11.29519,-19.70652 -11.29519,-19.67976 -22.45688,0 z m 108.49262,0 -11.2952,19.67976 11.2952,19.70652 22.51024,0 11.29523,-19.70652 -11.3219,-19.67976 -22.48357,0 z m 108.54606,0 -11.3219,19.67976 11.29516,19.70652 22.53698,0 11.29515,-19.70652 -11.3219,-19.67976 -22.48349,0 z m 108.54598,0 -11.3219,19.67976 11.29524,19.70652 22.51023,0 10.52083,-18.37139 -12.14972,-21.01489 -20.85468,0 z m -271.3517,31.50905 -11.3219,19.67977 11.3219,19.73326 22.48357,0 11.3219,-19.73326 -11.3219,-19.67977 -22.48357,0 z m 108.54606,0 -11.3219,19.67977 11.3219,19.73326 22.48349,0 11.3219,-19.73326 -11.3219,-19.67977 -22.48349,0 z m 108.51932,0 -11.32189,19.67977 11.32189,19.73326 22.4835,0 11.32189,-19.73326 -11.32189,-19.67977 -22.4835,0 z m -296.31867,11.85595 -15.91474,27.55708 9.10559,0 11.32189,-19.73326 -4.51274,-7.82382 z m 397.28111,1.33504 -3.73836,6.48878 11.3219,19.73326 7.55687,0 -15.14041,-26.22204 z m -372.31419,18.34473 -11.2952,19.65311 11.3219,19.73324 22.48359,0 11.29519,-19.73324 -11.29519,-19.65311 -22.51029,0 z m 108.54603,0 -11.2952,19.65311 11.2952,19.73324 22.48357,0 11.3219,-19.73324 -11.29523,-19.65311 -22.51024,0 z m 108.51932,0 -11.29516,19.65311 11.3219,19.73324 22.48349,0 11.3219,-19.73324 -11.29515,-19.65311 -22.53698,0 z m 108.54606,0 -11.29524,19.65311 11.3219,19.73324 22.48357,0 11.29516,-19.73324 -11.29516,-19.65311 -22.51023,0 z m -379.87107,31.50906 -11.29519,19.6531 11.29519,19.73325 22.48359,0 11.32189,-19.73325 -11.2952,-19.6531 -22.51028,0 z m 108.51933,0 -11.2952,19.6531 11.3219,19.73325 22.48357,0 11.3219,-19.73325 -11.29519,-19.6531 -22.53698,0 z m 108.54601,0 -11.29515,19.6531 11.3219,19.73325 22.48349,0 11.29525,-19.73325 -11.29525,-19.6531 -22.51024,0 z m 108.54607,0 -11.29524,19.6531 11.29524,19.73325 22.4835,0 11.32189,-19.73325 -11.29515,-19.6531 -22.51024,0 z m 108.51932,0 -11.29524,19.6531 11.3219,19.73325 22.48358,0 10.68103,-18.63849 -11.96275,-20.74786 -21.22852,0 z m -379.84437,31.50904 -11.29519,19.70651 11.29519,19.67986 22.48359,0 11.29519,-19.67986 -11.29519,-19.70651 -22.48359,0 z m 108.51933,0 -11.2952,19.70651 11.2952,19.67986 22.48357,0 11.29524,-19.67986 -11.29524,-19.70651 -22.48357,0 z m 108.54606,0 -11.29524,19.70651 11.29524,19.67986 22.48349,0 11.29524,-19.67986 -11.29524,-19.70651 -22.48349,0 z m 108.54598,0 -11.29524,19.70651 11.29524,19.67986 22.48357,0 11.29516,-19.67986 -11.29516,-19.70651 -22.48357,0 z m -405.02486,11.58893 -16.04826,27.79744 9.39931,0 11.2952,-19.67986 -4.64625,-8.11758 z m 506.14761,1.33513 -3.89867,6.78245 11.29524,19.67986 7.8773,0 -15.27387,-26.46231 z m -481.02048,18.585 -11.29519,19.70651 11.29519,19.67985 22.51028,0 11.2952,-19.67985 -11.32189,-19.70651 -22.48359,0 z m 108.54603,0 -11.3219,19.70651 11.2952,19.67985 22.53698,0 11.29519,-19.67985 -11.3219,-19.70651 -22.48357,0 z m 108.54606,0 -11.3219,19.70651 11.29515,19.67985 22.51024,0 11.29525,-19.67985 -11.29525,-19.70651 -22.48349,0 z m 108.51932,0 -11.29524,19.70651 11.29524,19.67985 22.51024,0 11.29515,-19.67985 -11.32189,-19.70651 -22.4835,0 z m 108.54598,0 -11.3219,19.70651 11.29524,19.67985 22.53698,0 11.29516,-19.67985 -11.3219,-19.70651 -22.48358,0 z m -488.41704,31.50905 -11.3219,19.70652 11.29519,19.67985 22.53698,0 11.2952,-19.67985 -11.3219,-19.70652 -22.48357,0 z m 108.54601,0 -11.3219,19.70652 11.2952,19.67985 22.51029,0 11.3219,-19.67985 -11.3219,-19.70652 -22.48359,0 z m 108.51933,0 -11.3219,19.70652 11.3219,19.67985 22.51024,0 11.29523,-19.67985 -11.3219,-19.70652 -22.48357,0 z m 108.54606,0 -11.3219,19.70652 11.29516,19.67985 22.53698,0 11.29515,-19.67985 -11.3219,-19.70652 -22.48349,0 z m 108.54598,0 -11.3219,19.70652 11.29524,19.67985 22.51023,0 11.3219,-19.67985 -11.3219,-19.70652 -22.48357,0 z m 108.51932,0 -11.3219,19.70652 11.3219,19.67985 22.51033,0 10.84116,-18.87878 -11.8292,-20.50759 -21.52229,0 z m -488.41705,31.50906 -11.3219,19.70651 11.3219,19.70651 22.48359,0 11.32189,-19.70651 -11.32189,-19.70651 -22.48359,0 z m 108.54603,0 -11.3219,19.70651 11.3219,19.70651 22.48357,0 11.3219,-19.70651 -11.3219,-19.70651 -22.48357,0 z m 108.54606,0 -11.3219,19.70651 11.3219,19.70651 22.48349,0 11.3219,-19.70651 -11.3219,-19.70651 -22.48349,0 z m 108.51932,0 -11.32189,19.70651 11.32189,19.70651 22.4835,0 11.32189,-19.70651 -11.32189,-19.70651 -22.4835,0 z m 108.54598,0 -11.3219,19.70651 11.3219,19.70651 22.48358,0 11.3219,-19.70651 -11.3219,-19.70651 -22.48358,0 z m -513.7044,11.3219 -16.20847,28.09112 9.71974,0 11.3219,-19.70651 -4.83317,-8.38461 z m 614.98728,1.33512 -4.0588,7.04949 11.3219,19.70651 8.17107,0 -15.43417,-26.756 z m -589.72663,18.85204 -11.29519,19.706505 11.3219,19.70651 22.48357,0 11.3219,-19.70651 -11.2952,-19.706505 -22.53698,0 z m 108.54602,0 -11.2952,19.706505 11.3219,19.70651 22.48359,0 11.29519,-19.70651 -11.29519,-19.706505 -22.51029,0 z m 108.54603,0 -11.2952,19.706505 11.2952,19.70651 22.48357,0 11.3219,-19.70651 -11.29523,-19.706505 -22.51024,0 z m 108.51932,0 -11.29516,19.706505 11.3219,19.70651 22.48349,0 11.3219,-19.70651 -11.29515,-19.706505 -22.53698,0 z m 108.54606,0 -11.29524,19.706505 11.3219,19.70651 22.48357,0 11.29516,-19.70651 -11.29516,-19.706505 -22.51023,0 z m 108.54598,0 -11.29524,19.706505 11.29524,19.70651 22.48358,0 11.3219,-19.70651 -11.29515,-19.706505 -22.51033,0 z m -596.93637,31.509048 -11.2952,19.706511 11.2952,19.70651 22.48358,0 11.2952,-19.70651 -11.2952,-19.706511 -22.48358,0 z m 108.51932,0 -11.29519,19.706511 11.29519,19.70651 22.48359,0 11.29519,-19.70651 -11.29519,-19.706511 -22.48359,0 z m 108.54603,0 -11.2952,19.706511 11.2952,19.70651 22.48357,0 11.2952,-19.70651 -11.2952,-19.706511 -22.48357,0 z m 108.54606,0 -11.29524,19.706511 11.29524,19.70651 22.48349,0 11.29525,-19.70651 -11.29525,-19.706511 -22.48349,0 z m 108.51932,0 -11.29524,19.706511 11.29524,19.70651 22.4835,0 11.29523,-19.70651 -11.29523,-19.706511 -22.4835,0 z m 108.54598,0 -11.29523,19.706511 11.29523,19.70651 22.48358,0 11.29515,-19.70651 -11.29515,-19.706511 -22.48358,0 z m 108.54598,0 -11.29515,19.706511 11.29515,19.70651 22.48366,0 11.00147,-19.199204 -11.66907,-20.213817 -21.81606,0 z m -596.96302,31.509055 -11.2952,19.70651 11.26849,19.70651041 0.0266,0 22.48359,0 0.0266,0 11.26849,-19.70651041 -11.2952,-19.70651 -22.48358,0 z m 108.54601,0 -11.29519,19.679765 11.26849,19.70655283 0.0266,0 22.48358,0 11.29519,-19.67980783 -11.29519,-19.70651 -22.48358,0 z m 108.51933,0 0,0.02666 -11.2952,19.67985 0,0.02675 11.2952,19.67976516 22.48357,0 0.0265,0 11.26857,-19.70651016 -11.29523,-19.706511 -22.48358,0 z m 108.54606,0 -11.29524,19.70651 11.2685,19.70651041 0.0264,0 22.48349,0 0.0265,0 11.26849,-19.70651041 -11.29524,-19.70651 -22.48349,0 z m 108.54598,0 -11.29524,19.679765 11.26858,19.70655283 0.0264,0 22.48358,0 11.29515,-19.67980783 -11.29515,-19.70651 -22.48358,0 z m 108.51932,0 0,0.02666 -11.29524,19.67985 0,0.02675 11.29524,19.67976516 22.48358,0 0.0265,0 11.2684,-19.70651016 -11.29515,-19.706511 -22.48358,0 z m -622.38393,11.081617 -16.34198,28.33140341 9.98676,0 0.0266,0 11.2685,-19.70651041 -4.93998,-8.624893 z m 723.82706,1.308384 -4.19235,7.316509 11.2685,19.70651041 0.0264,0 8.4916,0 -15.5944,-27.02301941 z m -698.3795,19.1190532 -11.32189,19.7332128 11.2952,19.653105 22.51027,0 11.2952,-19.653105 -11.2952,-19.7332128 -22.48358,0 z m 108.51932,0 -11.29519,19.7332128 11.29519,19.653105 22.51028,0 11.2952,-19.653105 -11.32189,-19.7332128 -22.48359,0 z m 108.54603,0 -11.3219,19.7332128 11.2952,19.653105 22.53698,0 11.29519,-19.653105 -11.3219,-19.7332128 -22.48357,0 z m 108.54606,0 -11.3219,19.7332128 11.29515,19.653105 22.51024,0 11.29525,-19.653105 -11.29525,-19.7332128 -22.48349,0 z m 108.51932,0 -11.29524,19.7332128 11.29524,19.653105 22.51024,0 11.29515,-19.653105 -11.32189,-19.7332128 -22.4835,0 z m 108.54598,0 -11.3219,19.7332128 11.29524,19.653105 22.53698,0 11.29516,-19.653105 -11.3219,-19.7332128 -22.48358,0 z m 108.54598,0 -11.3219,19.7332128 11.29524,19.653105 22.51032,0 11.29515,-19.653105 -11.29515,-19.7332128 -22.48366,0 z m -705.50905,31.5090548 -11.3219,19.733213 11.3219,19.679808 22.48358,0 11.3219,-19.679808 -11.3219,-19.733213 -22.48358,0 z m 108.54603,0 -11.3219,19.733213 11.3219,19.679808 22.48357,0 11.3219,-19.679808 -11.3219,-19.733213 -22.48357,0 z m 108.54601,0 -11.3219,19.733213 11.3219,19.679808 22.48359,0 11.3219,-19.679808 -11.3219,-19.733213 -22.48359,0 z m 108.51933,0 -11.3219,19.733213 11.3219,19.679808 22.48357,0 11.3219,-19.679808 -11.3219,-19.733213 -22.48357,0 z m 108.54606,0 -11.3219,19.733213 11.3219,19.679808 22.48349,0 11.3219,-19.679808 -11.3219,-19.733213 -22.48349,0 z m 108.54598,0 -11.3219,19.733213 11.3219,19.679808 22.48357,0 11.3219,-19.679808 -11.3219,-19.733213 -22.48357,0 z m 108.51932,0 -11.3219,19.733213 11.3219,19.679808 22.48358,0 11.3219,-19.679808 -11.3219,-19.733213 -22.48358,0 z m 108.54594,0 -11.3219,19.733213 11.3219,19.679808 22.48366,0 11.18836,-19.439485 -11.53555,-19.973536 -22.13647,0 z m -705.509,31.562459 -11.2952,19.679808 11.32189,19.706508 22.48358,0 11.2952,-19.706508 -11.2952,-19.679808 -22.51027,0 z m 108.54601,0 -11.29519,19.679808 11.29519,19.706508 22.48359,0 11.32189,-19.706508 -11.2952,-19.679808 -22.51028,0 z m 108.51933,0 -11.2952,19.679808 11.3219,19.706508 22.48357,0 11.3219,-19.706508 -11.29519,-19.679808 -22.53698,0 z m 108.54601,0 -11.29515,19.679808 11.3219,19.706508 22.48349,0 11.29525,-19.706508 -11.29525,-19.679808 -22.51024,0 z m 108.54607,0 -11.29524,19.679808 11.29524,19.706508 22.4835,0 11.32189,-19.706508 -11.29515,-19.679808 -22.51024,0 z m 108.51932,0 -11.29524,19.679808 11.3219,19.706508 22.48358,0 11.3219,-19.706508 -11.29516,-19.679808 -22.53698,0 z m 108.54598,0 -11.29524,19.679808 11.3219,19.706508 22.48366,0 11.29515,-19.706508 -11.29515,-19.679808 -22.51032,0 z m -731.06346,10.761143 -16.5022,28.625173 10.30719,0 11.3219,-19.706508 -5.12689,-8.918665 z m 832.66679,1.33513 -4.3525,7.583535 11.2952,19.706508 8.8386,0 -15.7813,-27.290043 z m -807.08572,19.412781 -11.2952,19.679815 11.2952,19.70651 22.48358,0 11.3219,-19.70651 -11.29519,-19.679815 -22.51029,0 z m 108.51932,0 -11.29519,19.679815 11.3219,19.70651 22.48357,0 11.3219,-19.70651 -11.2952,-19.679815 -22.53698,0 z m 108.54602,0 -11.2952,19.679815 11.3219,19.70651 22.48359,0 11.29519,-19.70651 -11.29519,-19.679815 -22.51029,0 z m 108.54603,0 -11.2952,19.679815 11.2952,19.70651 22.48357,0 11.3219,-19.70651 -11.29523,-19.679815 -22.51024,0 z m 108.51932,0 -11.29516,19.679815 11.3219,19.70651 22.48349,0 11.3219,-19.70651 -11.29515,-19.679815 -22.53698,0 z m 108.54606,0 -11.29524,19.679815 11.3219,19.70651 22.48357,0 11.29516,-19.70651 -11.29516,-19.679815 -22.51023,0 z m 108.54598,0 -11.29524,19.679815 11.29524,19.70651 22.48358,0 11.3219,-19.70651 -11.29515,-19.679815 -22.51033,0 z m 108.51928,0 -11.29524,19.679815 11.3219,19.70651 22.48366,0 11.32193,-19.70651 -11.29531,-19.679815 -22.53694,0 z m -814.00167,31.509055 -11.29519,19.67981 0,0.0266 11.29519,19.65311 22.48358,0 11.29519,-19.65311 -11.29519,-19.70651 -22.48358,0 z m 108.54602,0 -11.2952,19.70651 11.2952,19.65311 22.48358,0 11.2952,-19.65311 -11.2952,-19.70651 -22.48358,0 z m 108.51932,0 -11.29519,19.70651 11.29519,19.65311 22.48359,0 11.29519,-19.65311 -11.29519,-19.70651 -22.48359,0 z m 108.54603,0 -11.2952,19.70651 11.2952,19.65311 22.48357,0 11.2952,-19.65311 -11.2952,-19.70651 -22.48357,0 z m 108.54606,0 -11.29524,19.70651 11.29524,19.65311 22.48349,0 11.29525,-19.65311 -11.29525,-19.70651 -22.48349,0 z m 108.51932,0 -11.29524,19.70651 11.29524,19.65311 22.4835,0 11.29523,-19.65311 -11.29523,-19.70651 -22.4835,0 z m 108.54598,0 -11.29523,19.70651 11.29523,19.65311 22.48358,0 11.29515,-19.65311 -11.29515,-19.70651 -22.48358,0 z m 108.54598,0 -11.29515,19.70651 11.29515,19.65311 22.48366,0 11.29515,-19.65311 -11.29515,-19.70651 -22.48366,0 z m 108.51937,0 -11.2952,19.70651 11.2952,19.65311 22.4835,0 11.2953,-19.65311 -9.613,-16.74252 -1.6823,-2.96399 -22.4835,0 z m -814.02842,31.50905 -11.2952,19.70652 11.2952,19.6531 22.51029,0 11.29519,-19.6531 -11.3219,-19.70652 -22.48358,0 z m 108.54603,0 -11.3219,19.70652 11.29519,19.6531 22.53698,0 11.2952,-19.6531 -11.3219,-19.70652 -22.48357,0 z m 108.54601,0 -11.3219,19.70652 11.2952,19.6531 22.51029,0 11.29519,-19.6531 -11.29519,-19.70652 -22.48359,0 z m 108.51933,0 -11.2952,19.70652 11.2952,19.6531 22.51024,0 11.29523,-19.6531 -11.3219,-19.70652 -22.48357,0 z m 108.54606,0 -11.3219,19.70652 11.29516,19.6531 22.53698,0 11.29515,-19.6531 -11.3219,-19.70652 -22.48349,0 z m 108.54598,0 -11.3219,19.70652 11.29524,19.6531 22.51023,0 11.29516,-19.6531 -11.29516,-19.70652 -22.48357,0 z m 108.51932,0 -11.29524,19.70652 11.29524,19.6531 22.51033,0 11.29515,-19.6531 -11.3219,-19.70652 -22.48358,0 z m 108.54594,0 -11.3219,19.70652 11.29524,19.6531 22.53694,0 11.29531,-19.6531 -11.32193,-19.70652 -22.48366,0 z m -839.76962,10.52083 -16.63572,28.83879 10.60093,0 11.2952,-19.6531 -5.26041,-9.18569 z m 941.53317,1.30842 -4.5394,7.87727 11.2952,19.6531 9.1323,0 -15.888,-27.53037 z m -915.79188,19.67981 -11.3219,19.70651 11.3219,19.65311 22.51028,0 11.2952,-19.65311 -11.3219,-19.70651 -22.48358,0 z m 108.54602,0 -11.32189,19.70651 11.2952,19.65311 22.51027,0 11.3219,-19.65311 -11.3219,-19.70651 -22.48358,0 z m 108.51932,0 -11.3219,19.70651 11.3219,19.65311 22.51028,0 11.2952,-19.65311 -11.32189,-19.70651 -22.48359,0 z m 108.54603,0 -11.3219,19.70651 11.2952,19.65311 22.53698,0 11.29519,-19.65311 -11.3219,-19.70651 -22.48357,0 z m 108.54606,0 -11.3219,19.70651 11.29515,19.65311 22.51024,0 11.3219,-19.65311 -11.3219,-19.70651 -22.48349,0 z m 108.51932,0 -11.32189,19.70651 11.32189,19.65311 22.51024,0 11.29515,-19.65311 -11.32189,-19.70651 -22.4835,0 z m 108.54598,0 -11.3219,19.70651 11.29524,19.65311 22.53698,0 11.29516,-19.65311 -11.3219,-19.70651 -22.48358,0 z m 108.54598,0 -11.3219,19.70651 11.29524,19.65311 22.51032,0 11.3219,-19.65311 -11.3219,-19.70651 -22.48366,0 z m 108.51937,0 -11.3219,19.70651 11.3219,19.65311 22.5103,0 11.2953,-19.65311 -11.322,-19.70651 -22.4836,0 z m -922.547738,31.50906 -4.993384,8.67833 17.169762,30.73468 10.3072,0 11.3219,-19.7065 -11.3219,-19.70651 -22.483578,0 z m 108.519318,0 -11.3219,19.70651 11.3219,19.7065 22.48358,0 11.3219,-19.7065 -11.3219,-19.70651 -22.48358,0 z m 108.54603,0 -11.3219,19.70651 11.3219,19.7065 22.48357,0 11.3219,-19.7065 -11.3219,-19.70651 -22.48357,0 z m 108.54601,0 -11.3219,19.70651 11.3219,19.7065 22.48359,0 11.3219,-19.7065 -11.3219,-19.70651 -22.48359,0 z m 108.51933,0 -11.3219,19.70651 11.3219,19.7065 22.48357,0 11.3219,-19.7065 -11.3219,-19.70651 -22.48357,0 z m 108.54606,0 -11.3219,19.70651 11.3219,19.7065 22.48349,0 11.3219,-19.7065 -11.3219,-19.70651 -22.48349,0 z m 108.54598,0 -11.3219,19.70651 11.3219,19.7065 22.48357,0 11.3219,-19.7065 -11.3219,-19.70651 -22.48357,0 z m 108.51932,0 -11.3219,19.70651 11.3219,19.7065 22.48358,0 11.3219,-19.7065 -11.3219,-19.70651 -22.48358,0 z m 108.54594,0 -11.3219,19.70651 11.3219,19.7065 22.48366,0 11.32193,-19.7065 -11.32193,-19.70651 -22.48366,0 z m 108.54615,0 -11.3219,19.70651 11.3219,19.7065 17.1965,0 13.9921,-24.27265 -8.705,-15.14036 -22.4836,0 z m -922.57448,31.53575 -11.29519,19.6798 11.29519,19.70652 22.48358,0 11.3219,-19.70652 -11.2952,-19.6798 -22.51028,0 z m 108.51933,0 -11.2952,19.6798 11.32189,19.70652 22.48358,0 11.2952,-19.70652 -11.2952,-19.6798 -22.51027,0 z m 108.54601,0 -11.29519,19.6798 11.29519,19.70652 22.48359,0 11.32189,-19.70652 -11.2952,-19.6798 -22.51028,0 z m 108.51933,0 -11.2952,19.6798 11.3219,19.70652 22.48357,0 11.3219,-19.70652 -11.29519,-19.6798 -22.53698,0 z m 108.54601,0 -11.29515,19.6798 11.3219,19.70652 22.48349,0 11.29525,-19.70652 -11.29525,-19.6798 -22.51024,0 z m 108.54607,0 -11.29524,19.6798 11.29524,19.70652 22.4835,0 11.32189,-19.70652 -11.29515,-19.6798 -22.51024,0 z m 108.51932,0 -11.29524,19.6798 11.3219,19.70652 22.48358,0 11.3219,-19.70652 -11.29516,-19.6798 -22.53698,0 z m 108.54598,0 -11.29524,19.6798 11.3219,19.70652 22.48366,0 11.29515,-19.70652 -11.29515,-19.6798 -22.51032,0 z m 108.54603,0 -11.2952,19.6798 11.2952,19.70652 22.4835,0 11.322,-19.70652 -11.2953,-19.6798 -22.5103,0 z m -814.02842,31.50906 -11.2952,19.6798 11.2952,19.70651 22.48358,0 11.2952,-19.70651 -11.2952,-19.6798 -22.48358,0 z m 108.54603,0 -11.2952,19.6798 11.2952,19.70651 22.48357,0 11.2952,-19.70651 -11.2952,-19.6798 -22.48357,0 z m 108.54601,0 -11.29519,19.6798 11.29519,19.70651 22.48359,0 11.29519,-19.70651 -11.29519,-19.6798 -22.48359,0 z m 108.51933,0 -11.2952,19.6798 11.2952,19.70651 22.48357,0 11.29524,-19.70651 -11.29524,-19.6798 -22.48357,0 z m 108.54606,0 -11.29524,19.6798 11.29524,19.70651 22.48349,0 11.29524,-19.70651 -11.29524,-19.6798 -22.48349,0 z m 108.54598,0 -11.29524,19.6798 11.29524,19.70651 22.48357,0 11.29516,-19.70651 -11.29516,-19.6798 -22.48357,0 z m 108.51932,0 -11.29524,19.6798 11.29524,19.70651 22.48358,0 11.29515,-19.70651 -11.29515,-19.6798 -22.48358,0 z m 108.54594,0 -11.29516,19.6798 11.29516,19.70651 22.48366,0 11.29513,-19.70651 -11.29513,-19.6798 -22.48366,0 z m 108.54605,0 -11.2951,19.6798 1.7356,3.0174 13.111,-22.6972 -3.5515,0 z M 145.63562,307.12 l -5.71435,9.96007 16.44879,29.42625 11.74914,0 0.0267,0 11.26849,-19.70651 -11.29519,-19.67981 -22.48359,0 z m 108.54602,0 -11.2952,19.65311 11.26851,19.7065 0.0266,0 22.48357,0 11.2952,-19.6798 -11.2952,-19.67981 -22.48357,0 z m 108.51932,0 -11.29519,19.67981 11.29519,19.70651 22.48359,0 0.0266,0 11.26849,-19.70651 -11.2952,-19.67981 -22.48358,0 z m 108.54603,0 -11.2952,19.67981 11.2685,19.70651 0.0266,0 22.48357,0 0.0266,0 11.26849,-19.70651 -11.29519,-19.67981 -22.48358,0 z m 108.54606,0 -11.29524,19.65311 11.26849,19.7065 0.0265,0 22.48349,0 11.29525,-19.6798 -11.29525,-19.67981 -22.48349,0 z m 108.51932,0 -11.29524,19.67981 11.29524,19.70651 22.4835,0 0.0265,0 11.26849,-19.70651 -11.29523,-19.67981 -22.4835,0 z m 108.54598,0 -11.29523,19.67981 11.26857,19.70651 0.0265,0 22.48357,0 0.0265,0 11.26841,-19.70651 -11.29516,-19.67981 -22.48357,0 z m 108.54598,0 -11.29515,19.65311 11.26849,19.7065 0.0264,0 22.48366,0 11.29516,-19.6798 -11.29516,-19.67981 -22.48366,0 z m 108.51937,0 -11.2952,19.67981 11.2952,19.70651 16.9028,0 14.1257,-24.48627 -8.5449,-14.90005 -22.4836,0 z m -814.02842,31.50905 -11.2952,19.70651 11.2952,19.67981 22.51029,0 11.29519,-19.67981 -11.3219,-19.70651 -22.48358,0 z m 108.54603,0 -11.3219,19.70651 11.29519,19.67981 22.53698,0 11.2952,-19.67981 -11.3219,-19.70651 -22.48357,0 z m 108.54601,0 -11.3219,19.70651 11.2952,19.67981 22.51029,0 11.29519,-19.67981 -11.29519,-19.70651 -22.48359,0 z m 108.51933,0 -11.2952,19.70651 11.2952,19.67981 22.51024,0 11.29523,-19.67981 -11.3219,-19.70651 -22.48357,0 z m 108.54606,0 -11.3219,19.70651 11.29516,19.67981 22.53698,0 11.29515,-19.67981 -11.3219,-19.70651 -22.48349,0 z m 108.54598,0 -11.3219,19.70651 11.29524,19.67981 22.51023,0 11.29516,-19.67981 -11.29516,-19.70651 -22.48357,0 z m 108.51932,0 -11.29524,19.70651 11.29524,19.67981 22.51033,0 11.29515,-19.67981 -11.3219,-19.70651 -22.48358,0 z m 108.54594,0 -11.3219,19.70651 11.29524,19.67981 22.53703,0 11.29531,-19.67981 -11.32193,-19.70651 -22.48367,0 z m -705.48231,31.50905 -7.95737,13.83194 38.39833,0.0266 -7.95738,-13.85865 -22.48358,0 z m 108.51932,0 -7.95737,13.85865 38.39832,0 -7.95736,-13.85865 -22.48359,0 z m 108.54603,0 -7.95738,13.85865 38.42503,0.0266 -7.98408,-13.88534 -22.48357,0 z m 108.54606,0 -7.98411,13.88535 38.45172,0 -7.98412,-13.88535 -22.48349,0 z m 108.51932,0 -7.98412,13.88535 38.45173,0.0266 -7.98411,-13.91205 -22.4835,0 z m 108.54598,0 -7.98412,13.91206 38.45173,0 -7.98403,-13.91206 -22.48358,0 z m 108.54598,0 -8.01078,13.91206 38.50522,0.0266 -8.01078,-13.93875 -22.48366,0 z m 108.51927,0 -8.0108,13.93876 3.2311,0 8.0375,-13.93876 -3.2577,0 z"
       id="path2890"
       inkscape:connector-curvature="0" />
  </g>
  <g
     inkscape:groupmode="layer"
     id="layer3"
     inkscape:label="Border"
     style="display:inline">
    <path
       id="path4423"
       style="font-size:medium;font-style:normal;font-variant:normal;font-weight:normal;font-stretch:normal;text-indent:0;text-align:start;text-decoration:none;line-height:normal;letter-spacing:normal;word-spacing:normal;text-transform:none;direction:ltr;block-progression:tb;writing-mode:lr-tb;text-anchor:start;baseline-shift:baseline;color:#000000;fill:none;stroke:#000000;stroke-width:0.08858268;stroke-linecap:butt;stroke-linejoin:miter;stroke-miterlimit:4;stroke-opacity:1;stroke-dasharray:none;stroke-dashoffset:0;marker:none;visibility:visible;display:inline;overflow:visible;enable-background:accumulate;font-family:Sans;-inkscape-font-specification:Sans"
       d="m 0.125,266.34375 107.4375,192.28125 973.4842,0.0937 105.828,-183.28125 -486.71875,-843 -218.68735,2e-5 z"
       inkscape:connector-curvature="0"
       sodipodi:nodetypes="ccccccc"
       transform="translate(0,567.64025)" />
  </g>
</svg>
